<svg xmlns="http://www.w3.org/2000/svg" xmlns:xlink="http://www.w3.org/1999/xlink" contentStyleType="text/css" data-diagram-type="DESCRIPTION" height="521px" preserveAspectRatio="none" style="width:1137px;height:521px;background:#FFFFFF;" version="1.1" viewBox="0 0 1137 521" width="1137px" zoomAndPan="magnify"><defs/><g><!--cluster User Interface--><g id="cluster_User Interface"><rect fill="#FFFFFF" fill-opacity="0.00000" height="417" rx="2.5" ry="2.5" style="stroke:#181818;stroke-width:1;" width="265.57" x="57.91" y="7"/><text fill="#000000" font-family="sans-serif" font-size="14" font-weight="bold" lengthAdjust="spacing" textLength="112.5742" x="134.4079" y="21.9951">User Interface</text></g><!--cluster Connection Settings--><g id="cluster_Connection Settings"><rect fill="#FFFFFF" fill-opacity="0.00000" height="235" rx="2.5" ry="2.5" style="stroke:#181818;stroke-width:1;" width="217.57" x="81.91" y="165"/><text fill="#000000" font-family="sans-serif" font-size="14" font-weight="bold" lengthAdjust="spacing" textLength="159.6533" x="110.8683" y="179.9951">Connection Settings</text></g><!--cluster Performance Settings--><g id="cluster_Performance Settings"><rect fill="#FFFFFF" fill-opacity="0.00000" height="91" rx="2.5" ry="2.5" style="stroke:#181818;stroke-width:1;" width="204.37" x="88.51" y="50"/><text fill="#000000" font-family="sans-serif" font-size="14" font-weight="bold" lengthAdjust="spacing" textLength="172.0264" x="104.6818" y="64.9951">Performance Settings</text></g><!--cluster System Validation--><g id="cluster_System Validation"><rect fill="#FFFFFF" fill-opacity="0.00000" height="311" rx="2.5" ry="2.5" style="stroke:#181818;stroke-width:1;" width="560.92" x="347.48" y="119"/><text fill="#000000" font-family="sans-serif" font-size="14" font-weight="bold" lengthAdjust="spacing" textLength="143.6162" x="556.1319" y="133.9951">System Validation</text></g><!--cluster Input Validation--><g id="cluster_Input Validation"><rect fill="#FFFFFF" fill-opacity="0.00000" height="244" rx="2.5" ry="2.5" style="stroke:#181818;stroke-width:1;" width="221.96" x="371.48" y="162"/><text fill="#000000" font-family="sans-serif" font-size="14" font-weight="bold" lengthAdjust="spacing" textLength="127.1553" x="418.8824" y="176.9951">Input Validation</text></g><!--cluster Connection Management--><g id="cluster_Connection Management"><rect fill="#FFFFFF" fill-opacity="0.00000" height="172" rx="2.5" ry="2.5" style="stroke:#181818;stroke-width:1;" width="262.96" x="621.44" y="232"/><text fill="#000000" font-family="sans-serif" font-size="14" font-weight="bold" lengthAdjust="spacing" textLength="196.6221" x="654.609" y="246.9951">Connection Management</text></g><g id="elem_UC1"><ellipse cx="190.6967" cy="365.9993" fill="#F1F1F1" rx="77.9967" ry="17.9993" style="stroke:#181818;stroke-width:0.5;"/><text fill="#000000" font-family="sans-serif" font-size="14" lengthAdjust="spacing" textLength="113.6064" x="131.4397" y="369.6025">Enter Hostname</text></g><g id="elem_UC2"><ellipse cx="190.7004" cy="295.0021" fill="#F1F1F1" rx="78.0104" ry="18.0021" style="stroke:#181818;stroke-width:0.5;"/><text fill="#000000" font-family="sans-serif" font-size="14" lengthAdjust="spacing" textLength="113.6406" x="131.4319" y="298.6037">Enter Username</text></g><g id="elem_UC3"><ellipse cx="190.6954" cy="220.9971" fill="#F1F1F1" rx="92.7854" ry="20.9571" style="stroke:#181818;stroke-width:0.5;"/><text fill="#000000" font-family="sans-serif" font-size="14" lengthAdjust="spacing" textLength="148.0186" x="116.6861" y="223.8438">Enter Password Hash</text></g><g id="elem_UC4"><ellipse cx="190.7044" cy="104.9969" fill="#F1F1F1" rx="86.1844" ry="19.6369" style="stroke:#181818;stroke-width:0.5;"/><text fill="#000000" font-family="sans-serif" font-size="14" lengthAdjust="spacing" textLength="133.0479" x="124.1805" y="107.8436">Set Cache Timeout</text></g><g id="elem_VS1"><ellipse cx="482.4561" cy="369.9992" fill="#F1F1F1" rx="86.3961" ry="19.6792" style="stroke:#181818;stroke-width:0.5;"/><text fill="#000000" font-family="sans-serif" font-size="14" lengthAdjust="spacing" textLength="133.5332" x="415.6895" y="372.8459">Validate Hostname</text></g><g id="elem_VS2"><ellipse cx="482.4636" cy="294.9987" fill="#F1F1F1" rx="89.9436" ry="20.3887" style="stroke:#181818;stroke-width:0.5;"/><text fill="#000000" font-family="sans-serif" font-size="14" lengthAdjust="spacing" textLength="141.6133" x="411.6569" y="297.8454">Validate Credentials</text></g><g id="elem_VS3"><ellipse cx="482.459" cy="217.9958" fill="#F1F1F1" rx="94.979" ry="21.3958" style="stroke:#181818;stroke-width:0.5;"/><text fill="#000000" font-family="sans-serif" font-size="14" lengthAdjust="spacing" textLength="152.9268" x="405.9956" y="220.8425">Check Cache Settings</text></g><g id="elem_VS4"><ellipse cx="752.9222" cy="291.9964" fill="#F1F1F1" rx="115.4822" ry="25.4964" style="stroke:#181818;stroke-width:0.5;"/><text fill="#000000" font-family="sans-serif" font-size="14" lengthAdjust="spacing" textLength="197.6885" x="654.0779" y="294.8431">Check Version Compatibility</text></g><g id="elem_VS5"><ellipse cx="752.9194" cy="369.9999" fill="#F1F1F1" rx="77.9994" ry="17.9999" style="stroke:#181818;stroke-width:0.5;"/><text fill="#000000" font-family="sans-serif" font-size="14" lengthAdjust="spacing" textLength="113.6133" x="693.6601" y="373.6027">Test Connection</text></g><!--entity u--><g id="elem_u"><ellipse cx="21.9551" cy="228.35" fill="#F1F1F1" rx="8" ry="8" style="stroke:#181818;stroke-width:0.5;"/><path d="M21.9551,236.35 L21.9551,263.35 M8.9551,244.35 L34.9551,244.35 M21.9551,263.35 L8.9551,278.35 M21.9551,263.35 L34.9551,278.35 " fill="#FFFFFF" fill-opacity="0.00000" style="stroke:#181818;stroke-width:0.5;"/><text fill="#000000" font-family="sans-serif" font-size="14" lengthAdjust="spacing" textLength="31.9102" x="6" y="292.8451">User</text></g><!--entity s--><g id="elem_s"><ellipse cx="190.693" cy="448.35" fill="#F1F1F1" rx="8" ry="8" style="stroke:#181818;stroke-width:0.5;"/><path d="M190.693,456.35 L190.693,483.35 M177.693,464.35 L203.693,464.35 M190.693,483.35 L177.693,498.35 M190.693,483.35 L203.693,498.35 " fill="#FFFFFF" fill-opacity="0.00000" style="stroke:#181818;stroke-width:0.5;"/><text fill="#000000" font-family="sans-serif" font-size="14" lengthAdjust="spacing" textLength="52.2061" x="164.59" y="512.8451">System</text></g><g id="elem_GMN35"><path d="M928.4,348.3 L928.4,369.81 L830.8,371.68 L928.4,377.81 L928.4,403.6984 A0,0 0 0 0 928.4,403.6984 L1130.7906,403.6984 A0,0 0 0 0 1130.7906,403.6984 L1130.7906,358.3 L1120.7906,348.3 L928.4,348.3 A0,0 0 0 0 928.4,348.3 " fill="#FEFFDD" style="stroke:#181818;stroke-width:0.5;"/><path d="M1120.7906,348.3 L1120.7906,358.3 L1130.7906,358.3 L1120.7906,348.3 " fill="#FEFFDD" style="stroke:#181818;stroke-width:0.5;"/><text fill="#000000" font-family="sans-serif" font-size="13" lengthAdjust="spacing" textLength="181.3906" x="934.4" y="365.3669">System performs automatic</text><text fill="#000000" font-family="sans-serif" font-size="13" lengthAdjust="spacing" textLength="135.8398" x="934.4" y="380.4997">connection test after</text><text fill="#000000" font-family="sans-serif" font-size="13" lengthAdjust="spacing" textLength="90.0986" x="934.4" y="395.6325">all validations</text></g><g id="elem_GMN38"><path d="M942.01,258.3 L942.01,283.9 L868.02,289.51 L942.01,291.9 L942.01,313.6984 A0,0 0 0 0 942.01,313.6984 L1117.1946,313.6984 A0,0 0 0 0 1117.1946,313.6984 L1117.1946,268.3 L1107.1946,258.3 L942.01,258.3 A0,0 0 0 0 942.01,258.3 " fill="#FEFFDD" style="stroke:#181818;stroke-width:0.5;"/><path d="M1107.1946,258.3 L1107.1946,268.3 L1117.1946,268.3 L1107.1946,258.3 " fill="#FEFFDD" style="stroke:#181818;stroke-width:0.5;"/><text fill="#000000" font-family="sans-serif" font-size="13" lengthAdjust="spacing" textLength="149.189" x="948.01" y="275.3669">System checks version</text><text fill="#000000" font-family="sans-serif" font-size="13" lengthAdjust="spacing" textLength="130.8252" x="948.01" y="290.4997">compatibility before</text><text fill="#000000" font-family="sans-serif" font-size="13" lengthAdjust="spacing" textLength="154.1846" x="948.01" y="305.6325">establishing connection</text></g><!--link u to UC1--><g id="link_u_UC1"><path d="M29.7,296.62 C33.67,309.13 39.95,322.07 49.91,331 C67.88,347.12 86.2981,354.8266 109.5781,359.7166 " fill="#FFFFFF" fill-opacity="0.00000" id="u-to-UC1" style="stroke:#181818;stroke-width:1;"/><polygon fill="#181818" points="115.45,360.95,107.4645,355.1853,110.5568,359.9222,105.8199,363.0145,115.45,360.95" style="stroke:#181818;stroke-width:1;"/></g><!--link u to UC2--><g id="link_u_UC2"><path d="M38.34,261.42 C59.79,266.17 93.9427,273.7492 127.4427,281.1892 " fill="#FFFFFF" fill-opacity="0.00000" id="u-to-UC2" style="stroke:#181818;stroke-width:1;"/><polygon fill="#181818" points="133.3,282.49,125.3813,276.6339,128.4189,281.406,123.6468,284.4436,133.3,282.49" style="stroke:#181818;stroke-width:1;"/></g><!--link u to UC3--><g id="link_u_UC3"><path d="M38.34,254.59 C57.69,250.29 86.3027,243.9508 117.4627,237.0308 " fill="#FFFFFF" fill-opacity="0.00000" id="u-to-UC3" style="stroke:#181818;stroke-width:1;"/><polygon fill="#181818" points="123.32,235.73,113.6669,233.7763,118.4389,236.814,115.4012,241.586,123.32,235.73" style="stroke:#181818;stroke-width:1;"/></g><!--link u to UC4--><g id="link_u_UC4"><path d="M31.31,219.53 C35.39,207.2 41.34,194.12 49.91,184 C74.42,155.08 106.8201,136.9418 136.9801,124.0918 " fill="#FFFFFF" fill-opacity="0.00000" id="u-to-UC4" style="stroke:#181818;stroke-width:1;"/><polygon fill="#181818" points="142.5,121.74,132.6523,121.5878,137.9001,123.6998,135.7881,128.9476,142.5,121.74" style="stroke:#181818;stroke-width:1;"/></g><!--link s to VS1--><g id="link_s_VS1"><path d="M217.11,466.86 C246.38,454.18 296.03,433.14 339.48,417 C369.3,405.93 397.3772,396.5241 424.5072,387.8141 " fill="#FFFFFF" fill-opacity="0.00000" id="s-to-VS1" style="stroke:#181818;stroke-width:1;"/><polygon fill="#181818" points="430.22,385.98,420.4281,384.9226,425.4593,387.5084,422.8735,392.5397,430.22,385.98" style="stroke:#181818;stroke-width:1;"/></g><!--link s to VS2--><g id="link_s_VS2"><path d="M217.25,471.48 C249.66,461.77 304.56,440.17 331.48,400 C348.17,375.09 319.84,355.66 339.48,333 C353.94,316.32 369.0265,308.1029 390.3665,302.5029 " fill="#FFFFFF" fill-opacity="0.00000" id="s-to-VS2" style="stroke:#181818;stroke-width:1;"/><polygon fill="#181818" points="396.17,300.98,386.4495,299.3954,391.3337,302.2491,388.48,307.1334,396.17,300.98" style="stroke:#181818;stroke-width:1;"/></g><!--link s to VS3--><g id="link_s_VS3"><path d="M217.08,471.9 C249.84,462.54 305.69,441.24 331.48,400 C348.36,373.02 319.49,281.76 339.48,257 C352.65,240.69 366.1895,232.5081 386.3395,226.6381 " fill="#FFFFFF" fill-opacity="0.00000" id="s-to-VS3" style="stroke:#181818;stroke-width:1;"/><polygon fill="#181818" points="392.1,224.96,382.3404,223.6368,387.2995,226.3584,384.5779,231.3176,392.1,224.96" style="stroke:#181818;stroke-width:1;"/></g><!--link s to VS4--><g id="link_s_VS4"><path d="M217.16,475.24 C302.41,465.76 574.01,433.61 601.44,406 C623.99,383.3 592.37,359.09 613.44,335 C624.87,321.93 634.6255,314.974 650.9155,308.574 " fill="#FFFFFF" fill-opacity="0.00000" id="s-to-VS4" style="stroke:#181818;stroke-width:1;"/><polygon fill="#181818" points="656.5,306.38,646.6606,305.9481,651.8463,308.2084,649.586,313.394,656.5,306.38" style="stroke:#181818;stroke-width:1;"/></g><!--link s to VS5--><g id="link_s_VS5"><path d="M216.94,482.17 C282.33,491.96 461.83,512.48 601.44,469 C654.29,452.54 701.4945,415.4937 728.3745,391.7337 " fill="#FFFFFF" fill-opacity="0.00000" id="s-to-VS5" style="stroke:#181818;stroke-width:1;"/><polygon fill="#181818" points="732.87,387.76,723.4776,390.7236,729.1237,391.0714,728.7759,396.7176,732.87,387.76" style="stroke:#181818;stroke-width:1;"/></g><!--link UC1 to VS1--><g id="link_UC1_VS1"><path d="M268.97,367.07 C308.03,367.61 349.5506,368.1764 389.7306,368.7364 " fill="#FFFFFF" fill-opacity="0.00000" id="UC1-to-VS1" style="stroke:#181818;stroke-width:1;stroke-dasharray:7.0,7.0;"/><polygon fill="#181818" points="395.73,368.82,386.7866,364.695,390.7305,368.7503,386.6751,372.6942,395.73,368.82" style="stroke:#181818;stroke-width:1;"/></g><!--link UC2 to VS2--><g id="link_UC2_VS2"><path d="M268.97,295 C306.86,295 346.7,295 386.09,295 " fill="#FFFFFF" fill-opacity="0.00000" id="UC2-to-VS2" style="stroke:#181818;stroke-width:1;stroke-dasharray:7.0,7.0;"/><polygon fill="#181818" points="392.09,295,383.09,291,387.09,295,383.09,299,392.09,295" style="stroke:#181818;stroke-width:1;"/></g><!--link UC3 to VS2--><g id="link_UC3_VS2"><path d="M253.5,236.79 C303.2,249.48 366.7766,265.7153 415.9166,278.2653 " fill="#FFFFFF" fill-opacity="0.00000" id="UC3-to-VS2" style="stroke:#181818;stroke-width:1;stroke-dasharray:7.0,7.0;"/><polygon fill="#181818" points="421.73,279.75,413.9997,273.6473,416.8855,278.5127,412.0201,281.3986,421.73,279.75" style="stroke:#181818;stroke-width:1;"/></g><!--link UC4 to VS3--><g id="link_UC4_VS3"><path d="M235.7,122.16 C289.06,142.97 373.0601,175.7299 428.0601,197.1799 " fill="#FFFFFF" fill-opacity="0.00000" id="UC4-to-VS3" style="stroke:#181818;stroke-width:1;stroke-dasharray:7.0,7.0;"/><polygon fill="#181818" points="433.65,199.36,426.7185,192.3633,428.9917,197.5433,423.8117,199.8165,433.65,199.36" style="stroke:#181818;stroke-width:1;"/></g><!--link VS1 to VS5--><g id="link_VS1_VS5"><path d="M569.14,370 C603.05,370 635.74,370 668.77,370 " fill="#FFFFFF" fill-opacity="0.00000" id="VS1-to-VS5" style="stroke:#181818;stroke-width:1;stroke-dasharray:7.0,7.0;"/><polygon fill="#181818" points="674.77,370,665.77,366,669.77,370,665.77,374,674.77,370" style="stroke:#181818;stroke-width:1;"/></g><!--link VS2 to VS5--><g id="link_VS2_VS5"><path d="M535.77,311.77 C559.41,319.17 587.75,327.81 613.44,335 C641.02,342.73 666.0755,349.1593 691.6655,355.4893 " fill="#FFFFFF" fill-opacity="0.00000" id="VS2-to-VS5" style="stroke:#181818;stroke-width:1;stroke-dasharray:7.0,7.0;"/><polygon fill="#181818" points="697.49,356.93,689.7138,350.8859,692.6363,355.7294,687.7928,358.6518,697.49,356.93" style="stroke:#181818;stroke-width:1;"/></g><!--link VS3 to VS4--><g id="link_VS3_VS4"><path d="M544.04,234.7 C584.1,245.74 631.0354,258.6866 673.3654,270.3466 " fill="#FFFFFF" fill-opacity="0.00000" id="VS3-to-VS4" style="stroke:#181818;stroke-width:1;stroke-dasharray:7.0,7.0;"/><polygon fill="#181818" points="679.15,271.94,671.5354,265.6936,674.3295,270.6122,669.4109,273.4063,679.15,271.94" style="stroke:#181818;stroke-width:1;"/></g><!--SRC=[VLEnRkCm3Dtr5KINcrgWjhFUOXpG3WSKI9kTaPbOY2mPfjmYEFJVZx8LnK6IQZ2UnIS-yb6oj0iGF0nctmPep40w6EyK7uphSS0EUjG7tDCw72r13AFRMr8ATV03V30DW0nZ-byVEL0NTrYfT1GU9jQh2pJiKDC3_5CWAuThxzoi2siAmRWzdpXnZKmQMNX_OWPuyHmSTf96L3xgvtkyABhW5VTuRyZyvOS6Nf3RH2udylVqlQprJNhmGuTEqy_5IX1gr2t1k-d8Zo6bhbBgxuK_oRKDMjDWzE7AebVNZ-46uK8oXUdIeitw-GTgFL13BXYqdDWtZAfRqeVKpRdfYNtVgSLK_wAJhKvqRjOzfz_Gm95S-wwN7hV6cd1CAjNreNTYCJXh9EBgxEwl-NBgJ64rmkFZx-dEd52HKPbH5S-caNncnrdn58zsdb2HKPbHbT5Ayfmd1ZlhlrY9E3mzpMb4Fk52SBd0LSAb4bx2Ay750f_uKgxpCidv2VjTTY6rqCytbW77u3kfHK_HioyGefMuaySmHT3QYxx9DH0LhdMgfOwEKsJudCUOD1QZX2r97JG5H12trd0hDsbHIPRw3m00]--></g></svg>