<svg xmlns="http://www.w3.org/2000/svg" xmlns:xlink="http://www.w3.org/1999/xlink" contentStyleType="text/css" data-diagram-type="DESCRIPTION" height="1175px" preserveAspectRatio="none" style="width:2105px;height:1175px;background:#FFFFFF;" version="1.1" viewBox="0 0 2105 1175" width="2105px" zoomAndPan="magnify"><defs/><g><!--cluster PRTG Query System--><g id="cluster_PRTG Query System"><rect fill="#FFFFFF" fill-opacity="0.00000" height="1039.94" rx="2.5" ry="2.5" style="stroke:#181818;stroke-width:1;" width="2092" x="7" y="129.8"/><text fill="#000000" font-family="sans-serif" font-size="14" font-weight="bold" lengthAdjust="spacing" textLength="157.541" x="974.2295" y="144.7951">PRTG Query System</text></g><!--cluster QueryEditor--><g id="cluster_QueryEditor"><path d="M722.5,172.8 L818.4922,172.8 A3.75,3.75 0 0 1 820.9922,175.3 L827.9922,195.0969 L1285.5,195.0969 A2.5,2.5 0 0 1 1288,197.5969 L1288,376.9 A2.5,2.5 0 0 1 1285.5,379.4 L722.5,379.4 A2.5,2.5 0 0 1 720,376.9 L720,175.3 A2.5,2.5 0 0 1 722.5,172.8 " fill="#FFFFFF" fill-opacity="0.00000" style="stroke:#000000;stroke-width:1.5;"/><line style="stroke:#000000;stroke-width:1.5;" x1="720" x2="827.9922" y1="195.0969" y2="195.0969"/><text fill="#000000" font-family="sans-serif" font-size="14" font-weight="bold" lengthAdjust="spacing" textLength="94.9922" x="724" y="187.7951">QueryEditor</text></g><!--cluster Common Selection Path--><g id="cluster_Common Selection Path"><rect fill="#FFFFFF" fill-opacity="0.00000" height="354.56" rx="2.5" ry="2.5" style="stroke:#181818;stroke-width:1;" width="230" x="927" y="431.59"/><text fill="#000000" font-family="sans-serif" font-size="14" font-weight="bold" lengthAdjust="spacing" textLength="188.0156" x="947.9922" y="446.5851">Common Selection Path</text></g><!--cluster Raw Attributes--><g id="cluster_Raw Attributes"><rect fill="#FFFFFF" fill-opacity="0.00000" height="108.19" rx="2.5" ry="2.5" style="stroke:#181818;stroke-width:1;" width="870" x="31" y="680.45"/><text fill="#000000" font-family="sans-serif" font-size="14" font-weight="bold" lengthAdjust="spacing" textLength="118.4668" x="406.7666" y="695.4451">Raw Attributes</text></g><!--cluster Normal Attributes--><g id="cluster_Normal Attributes"><rect fill="#FFFFFF" fill-opacity="0.00000" height="108.85" rx="2.5" ry="2.5" style="stroke:#181818;stroke-width:1;" width="894" x="1181" y="428.4"/><text fill="#000000" font-family="sans-serif" font-size="14" font-weight="bold" lengthAdjust="spacing" textLength="142.3789" x="1556.8105" y="443.3951">Normal Attributes</text></g><!--cluster Metrics Display--><g id="cluster_Metrics Display"><rect fill="#FFFFFF" fill-opacity="0.00000" height="308.1" rx="2.5" ry="2.5" style="stroke:#181818;stroke-width:1;" width="220" x="960" y="837.64"/><text fill="#000000" font-family="sans-serif" font-size="14" font-weight="bold" lengthAdjust="spacing" textLength="121.4746" x="1009.2627" y="852.6351">Metrics Display</text></g><g id="elem_queryType"><ellipse cx="1012.0049" cy="246.083" fill="#F1F1F1" rx="84.4149" ry="19.283" style="stroke:#181818;stroke-width:0.5;"/><text fill="#000000" font-family="sans-serif" font-size="14" lengthAdjust="spacing" textLength="128.9736" x="947.3931" y="248.9729">Select Query Type</text></g><g id="elem_rawQuery"><ellipse cx="815.9959" cy="344.8812" fill="#F1F1F1" rx="80.1059" ry="18.4212" style="stroke:#181818;stroke-width:0.5;"/><text fill="#000000" font-family="sans-serif" font-size="14" lengthAdjust="spacing" textLength="118.7813" x="754.9789" y="348.2499">Enter Raw Query</text></g><g id="elem_textQuery"><ellipse cx="1011.9957" cy="344.8791" fill="#F1F1F1" rx="80.5957" ry="18.5191" style="stroke:#181818;stroke-width:0.5;"/><text fill="#000000" font-family="sans-serif" font-size="14" lengthAdjust="spacing" textLength="119.9639" x="950.5701" y="348.1934">Enter Text Query</text></g><g id="elem_metrics"><ellipse cx="1200.0023" cy="344.8805" fill="#F1F1F1" rx="72.1023" ry="16.8205" style="stroke:#181818;stroke-width:0.5;"/><text fill="#000000" font-family="sans-serif" font-size="14" lengthAdjust="spacing" textLength="98.458" x="1147.7733" y="348.628">Select Metrics</text></g><g id="elem_group"><ellipse cx="1012.0015" cy="501.8343" fill="#F1F1F1" rx="69.1715" ry="16.2343" style="stroke:#181818;stroke-width:0.5;"/><text fill="#000000" font-family="sans-serif" font-size="14" lengthAdjust="spacing" textLength="90.5693" x="963.7168" y="505.5819">Select Group</text></g><g id="elem_device"><ellipse cx="1069.9982" cy="600.8496" fill="#F1F1F1" rx="70.9982" ry="16.5996" style="stroke:#181818;stroke-width:0.5;"/><text fill="#000000" font-family="sans-serif" font-size="14" lengthAdjust="spacing" textLength="95.5186" x="1019.2389" y="604.5972">Select Device</text></g><g id="elem_sensor"><ellipse cx="1069.999" cy="753.5478" fill="#F1F1F1" rx="71.039" ry="16.6078" style="stroke:#181818;stroke-width:0.5;"/><text fill="#000000" font-family="sans-serif" font-size="14" lengthAdjust="spacing" textLength="95.6279" x="1019.1851" y="757.2954">Select Sensor</text></g><g id="elem_rawActive"><ellipse cx="129.9986" cy="753.5477" fill="#F1F1F1" rx="83.4886" ry="19.0977" style="stroke:#181818;stroke-width:0.5;"/><text fill="#000000" font-family="sans-serif" font-size="14" lengthAdjust="spacing" textLength="126.8203" x="66.1595" y="756.5405">Raw Active Status</text></g><g id="elem_rawMessages"><ellipse cx="322.0006" cy="753.5461" fill="#F1F1F1" rx="73.7806" ry="17.1561" style="stroke:#181818;stroke-width:0.5;"/><text fill="#000000" font-family="sans-serif" font-size="14" lengthAdjust="spacing" textLength="102.8604" x="267.5705" y="757.2937">Raw Messages</text></g><g id="elem_rawStatus"><ellipse cx="496.0044" cy="753.5529" fill="#F1F1F1" rx="65.0144" ry="15.4029" style="stroke:#181818;stroke-width:0.5;"/><text fill="#000000" font-family="sans-serif" font-size="14" lengthAdjust="spacing" textLength="78.8184" x="453.5953" y="757.3004">Raw Status</text></g><g id="elem_rawPriority"><ellipse cx="663.0031" cy="753.5526" fill="#F1F1F1" rx="66.9131" ry="15.7826" style="stroke:#181818;stroke-width:0.5;"/><text fill="#000000" font-family="sans-serif" font-size="14" lengthAdjust="spacing" textLength="84.2803" x="617.863" y="757.3002">Raw Priority</text></g><g id="elem_rawTags"><ellipse cx="825.0035" cy="753.5548" fill="#F1F1F1" rx="60.4535" ry="14.7748" style="stroke:#181818;stroke-width:0.5;"/><text fill="#000000" font-family="sans-serif" font-size="14" lengthAdjust="spacing" textLength="67.5186" x="788.2443" y="757.3023">Raw Tags</text></g><g id="elem_active"><ellipse cx="1973.9968" cy="501.8334" fill="#F1F1F1" rx="85.1168" ry="19.4234" style="stroke:#181818;stroke-width:0.5;"/><text fill="#000000" font-family="sans-serif" font-size="14" lengthAdjust="spacing" textLength="130.5938" x="1908.6999" y="504.68">View Active Status</text></g><g id="elem_messages"><ellipse cx="1272.0016" cy="501.8283" fill="#F1F1F1" rx="75.2416" ry="17.4483" style="stroke:#181818;stroke-width:0.5;"/><text fill="#000000" font-family="sans-serif" font-size="14" lengthAdjust="spacing" textLength="106.6338" x="1215.6847" y="505.5759">View Messages</text></g><g id="elem_status"><ellipse cx="1452.0022" cy="501.8284" fill="#F1F1F1" rx="69.7422" ry="16.3484" style="stroke:#181818;stroke-width:0.5;"/><text fill="#000000" font-family="sans-serif" font-size="14" lengthAdjust="spacing" textLength="92.1279" x="1402.9383" y="505.576">Check Status</text></g><g id="elem_priority"><ellipse cx="1624.9993" cy="501.8319" fill="#F1F1F1" rx="68.2593" ry="16.0519" style="stroke:#181818;stroke-width:0.5;"/><text fill="#000000" font-family="sans-serif" font-size="14" lengthAdjust="spacing" textLength="88.0537" x="1577.9725" y="505.5794">View Priority</text></g><g id="elem_tags"><ellipse cx="1791.0043" cy="501.8309" fill="#F1F1F1" rx="62.5043" ry="14.9009" style="stroke:#181818;stroke-width:0.5;"/><text fill="#000000" font-family="sans-serif" font-size="14" lengthAdjust="spacing" textLength="71.292" x="1752.3583" y="505.5784">View Tags</text></g><g id="elem_channel"><ellipse cx="1070.0016" cy="908.9703" fill="#F1F1F1" rx="74.6516" ry="17.3303" style="stroke:#181818;stroke-width:0.5;"/><text fill="#000000" font-family="sans-serif" font-size="14" lengthAdjust="spacing" textLength="105.1162" x="1014.4435" y="912.7179">Select Channel</text></g><g id="elem_timeRange"><ellipse cx="1070.004" cy="1006.7988" fill="#F1F1F1" rx="85.494" ry="19.4988" style="stroke:#181818;stroke-width:0.5;"/><text fill="#000000" font-family="sans-serif" font-size="14" lengthAdjust="spacing" textLength="131.4619" x="1004.273" y="1009.6455">Select Time Range</text></g><g id="elem_histGraph"><ellipse cx="1070.0044" cy="1108.5189" fill="#F1F1F1" rx="94.0944" ry="21.2189" style="stroke:#181818;stroke-width:0.5;"/><text fill="#000000" font-family="sans-serif" font-size="14" lengthAdjust="spacing" textLength="150.9512" x="994.5289" y="1111.3656">View Historical Graph</text></g><!--entity User--><g id="elem_User"><ellipse cx="1012" cy="22" fill="#F1F1F1" rx="16" ry="16" style="stroke:#181818;stroke-width:0.5;"/><path d="M1012,42 C1016,42 1019,42 1023,38 C1031,38 1039,46 1039,54 L1039,58 C1039,62 1035,66 1031,66 L993,66 C989,66 985,62 985,58 L985,54 C985,46 993,38 1001,38 C1005,42 1008,42 1012,42 " fill="#F1F1F1" style="stroke:#181818;stroke-width:0.5;"/><text fill="#000000" font-family="sans-serif" font-size="14" lengthAdjust="spacing" textLength="31.9102" x="996.0449" y="79.4951">User</text></g><!--link User to queryType--><g id="link_User_queryType"><path d="M1012,83.23 C1012,126.05 1012,187.86 1012,220.43 " fill="#FFFFFF" fill-opacity="0.00000" id="User-to-queryType" style="stroke:#181818;stroke-width:1;"/><polygon fill="#181818" points="1012,226.43,1016,217.43,1012,221.43,1008,217.43,1012,226.43" style="stroke:#181818;stroke-width:1;"/></g><!--link queryType to rawQuery--><g id="link_queryType_rawQuery"><path d="M977.86,263.94 C941.56,281.87 889.9194,307.3726 854.1494,325.0426 " fill="#FFFFFF" fill-opacity="0.00000" id="queryType-to-rawQuery" style="stroke:#181818;stroke-width:1;"/><polygon fill="#181818" points="848.77,327.7,858.6107,327.3002,853.2529,325.4855,855.0676,320.1276,848.77,327.7" style="stroke:#181818;stroke-width:1;"/></g><!--link queryType to textQuery--><g id="link_queryType_textQuery"><path d="M1012,265.75 C1012,283.11 1012,302.8 1012,319.93 " fill="#FFFFFF" fill-opacity="0.00000" id="queryType-to-textQuery" style="stroke:#181818;stroke-width:1;"/><polygon fill="#181818" points="1012,325.93,1016,316.93,1012,320.93,1008,316.93,1012,325.93" style="stroke:#181818;stroke-width:1;"/></g><!--link queryType to metrics--><g id="link_queryType_metrics"><path d="M1045.18,264.16 C1080.91,282.56 1131.8652,308.8041 1165.8252,326.2841 " fill="#FFFFFF" fill-opacity="0.00000" id="queryType-to-metrics" style="stroke:#181818;stroke-width:1;"/><polygon fill="#181818" points="1171.16,329.03,1164.9885,321.3546,1166.7144,326.7417,1161.3272,328.4676,1171.16,329.03" style="stroke:#181818;stroke-width:1;"/></g><!--link rawQuery to group--><g id="link_rawQuery_group"><path d="M837.72,363.06 C876.4,393.63 951.8335,453.2586 988.3835,482.1586 " fill="#FFFFFF" fill-opacity="0.00000" id="rawQuery-to-group" style="stroke:#181818;stroke-width:1;"/><polygon fill="#181818" points="993.09,485.88,988.5112,477.1602,989.1679,482.7788,983.5493,483.4355,993.09,485.88" style="stroke:#181818;stroke-width:1;"/></g><!--link textQuery to group--><g id="link_textQuery_group"><path d="M1012,363.66 C1012,394.18 1012,450.08 1012,479.12 " fill="#FFFFFF" fill-opacity="0.00000" id="textQuery-to-group" style="stroke:#181818;stroke-width:1;"/><polygon fill="#181818" points="1012,485.12,1016,476.12,1012,480.12,1008,476.12,1012,485.12" style="stroke:#181818;stroke-width:1;"/></g><!--link metrics to group--><g id="link_metrics_group"><path d="M1180.94,361.59 C1144.63,391.52 1070.5998,452.5236 1034.9098,481.9436 " fill="#FFFFFF" fill-opacity="0.00000" id="metrics-to-group" style="stroke:#181818;stroke-width:1;"/><polygon fill="#181818" points="1030.28,485.76,1039.769,483.1219,1034.1382,482.5796,1034.6804,476.9488,1030.28,485.76" style="stroke:#181818;stroke-width:1;"/></g><!--link group to device--><g id="link_group_device"><path d="M1021.06,517.99 C1031.83,536 1046.6301,560.7608 1057.5401,579.0008 " fill="#FFFFFF" fill-opacity="0.00000" id="group-to-device" style="stroke:#181818;stroke-width:1;"/><polygon fill="#181818" points="1060.62,584.15,1059.4329,574.3729,1058.0534,579.859,1052.5673,578.4795,1060.62,584.15" style="stroke:#181818;stroke-width:1;"/></g><!--link device to sensor--><g id="link_device_sensor"><path d="M1070,617.69 C1070,646.56 1070,701.42 1070,730.46 " fill="#FFFFFF" fill-opacity="0.00000" id="device-to-sensor" style="stroke:#181818;stroke-width:1;"/><polygon fill="#181818" points="1070,736.46,1074,727.46,1070,731.46,1066,727.46,1070,736.46" style="stroke:#181818;stroke-width:1;"/></g><!--link group to rawActive--><g id="link_group_rawActive"><path d="M943.74,504.9 C789.33,510.52 418.06,529.48 307,584.25 C233.03,620.73 172.8689,694.1042 146.5089,729.5742 " fill="#FFFFFF" fill-opacity="0.00000" id="group-to-rawActive" style="stroke:#181818;stroke-width:1;stroke-dasharray:7.0,7.0;"/><polygon fill="#181818" points="142.93,734.39,151.5088,729.5523,145.9124,730.3769,145.0878,724.7804,142.93,734.39" style="stroke:#181818;stroke-width:1;"/><text fill="#000000" font-family="sans-serif" font-size="13" lengthAdjust="spacing" textLength="77.9238" x="308" y="605.4169">if raw query</text></g><!--link group to rawMessages--><g id="link_group_rawMessages"><path d="M944.05,505.35 C809.51,511.46 514.95,530.72 431,584.25 C373.03,621.21 341.6269,695.6521 329.3869,730.3321 " fill="#FFFFFF" fill-opacity="0.00000" id="group-to-rawMessages" style="stroke:#181818;stroke-width:1;stroke-dasharray:7.0,7.0;"/><polygon fill="#181818" points="327.39,735.99,334.1573,728.8344,329.0541,731.275,326.6134,726.1718,327.39,735.99" style="stroke:#181818;stroke-width:1;"/><text fill="#000000" font-family="sans-serif" font-size="13" lengthAdjust="spacing" textLength="77.9238" x="432" y="605.4169">if raw query</text></g><!--link group to rawStatus--><g id="link_group_rawStatus"><path d="M951.19,509.98 C823.98,526.36 536.91,571.15 481,647.45 C461.17,674.51 474.4475,710.838 485.3175,732.688 " fill="#FFFFFF" fill-opacity="0.00000" id="group-to-rawStatus" style="stroke:#181818;stroke-width:1;stroke-dasharray:7.0,7.0;"/><polygon fill="#181818" points="487.99,738.06,487.5626,728.2204,485.763,733.5834,480.4,731.7837,487.99,738.06" style="stroke:#181818;stroke-width:1;"/><text fill="#000000" font-family="sans-serif" font-size="13" lengthAdjust="spacing" textLength="77.9238" x="591" y="605.4169">if raw query</text></g><!--link group to rawPriority--><g id="link_group_rawPriority"><path d="M962.42,513.39 C916.08,525.05 846.63,547.24 796,584.25 C788.18,589.96 708.9246,692.7314 678.1046,732.8614 " fill="#FFFFFF" fill-opacity="0.00000" id="group-to-rawPriority" style="stroke:#181818;stroke-width:1;stroke-dasharray:7.0,7.0;"/><polygon fill="#181818" points="674.45,737.62,683.1043,732.9186,677.4955,733.6545,676.7595,728.0458,674.45,737.62" style="stroke:#181818;stroke-width:1;"/><text fill="#000000" font-family="sans-serif" font-size="13" lengthAdjust="spacing" textLength="77.9238" x="797" y="605.4169">if raw query</text></g><!--link group to rawTags--><g id="link_group_rawTags"><path d="M985.72,517.29 C961.61,531.66 926.22,555.63 903,584.25 C882.15,609.95 846.7086,697.2473 832.6686,732.8973 " fill="#FFFFFF" fill-opacity="0.00000" id="group-to-rawTags" style="stroke:#181818;stroke-width:1;stroke-dasharray:7.0,7.0;"/><polygon fill="#181818" points="830.47,738.48,837.4897,731.5718,832.3022,733.8278,830.0461,728.6403,830.47,738.48" style="stroke:#181818;stroke-width:1;"/><text fill="#000000" font-family="sans-serif" font-size="13" lengthAdjust="spacing" textLength="77.9238" x="904" y="605.4169">if raw query</text></g><!--link sensor to rawActive--><g id="link_sensor_rawActive"><path d="M1045.52,737.5 C1013.75,717.71 955.85,685.13 901,672.45 C828.47,655.68 301.11,647.41 231,672.45 C196.27,684.85 168.6601,710.2416 150.3701,730.0516 " fill="#FFFFFF" fill-opacity="0.00000" id="sensor-to-rawActive" style="stroke:#181818;stroke-width:1;stroke-dasharray:7.0,7.0;"/><polygon fill="#181818" points="146.3,734.46,155.3441,730.5608,149.6918,730.7863,149.4663,725.134,146.3,734.46" style="stroke:#181818;stroke-width:1;"/><text fill="#000000" font-family="sans-serif" font-size="13" lengthAdjust="spacing" textLength="77.9238" x="483.5" y="660.5169">if raw query</text></g><!--link sensor to rawMessages--><g id="link_sensor_rawMessages"><path d="M1045.52,737.52 C1013.74,717.75 955.84,685.2 901,672.45 C795.37,647.89 514.04,633.05 413,672.45 C379.68,685.44 354.4512,711.9452 338.6012,731.6452 " fill="#FFFFFF" fill-opacity="0.00000" id="sensor-to-rawMessages" style="stroke:#181818;stroke-width:1;stroke-dasharray:7.0,7.0;"/><polygon fill="#181818" points="334.84,736.32,343.5983,731.8153,337.9743,732.4244,337.3652,726.8004,334.84,736.32" style="stroke:#181818;stroke-width:1;"/><text fill="#000000" font-family="sans-serif" font-size="13" lengthAdjust="spacing" textLength="77.9238" x="567.5" y="660.5169">if raw query</text></g><!--link sensor to rawStatus--><g id="link_sensor_rawStatus"><path d="M1045.51,737.56 C1013.72,717.83 955.81,685.32 901,672.45 C831.34,656.09 644.8,644.34 579,672.45 C546.76,686.22 523.4805,713.8427 509.6505,733.2627 " fill="#FFFFFF" fill-opacity="0.00000" id="sensor-to-rawStatus" style="stroke:#181818;stroke-width:1;stroke-dasharray:7.0,7.0;"/><polygon fill="#181818" points="506.17,738.15,514.649,733.1394,509.0704,734.0772,508.1326,728.4987,506.17,738.15" style="stroke:#181818;stroke-width:1;"/><text fill="#000000" font-family="sans-serif" font-size="13" lengthAdjust="spacing" textLength="77.9238" x="651.5" y="660.5169">if raw query</text></g><!--link sensor to rawPriority--><g id="link_sensor_rawPriority"><path d="M1045.16,737.68 C1013.24,718.24 955.43,686.2 901,672.45 C845.19,658.35 829,667.24 771.5,670.05 C760.57,670.58 756.93,667.86 747,672.45 C715.35,687.07 691.9064,713.8473 677.5664,732.9973 " fill="#FFFFFF" fill-opacity="0.00000" id="sensor-to-rawPriority" style="stroke:#181818;stroke-width:1;stroke-dasharray:7.0,7.0;"/><polygon fill="#181818" points="673.97,737.8,682.5664,732.9935,676.967,733.7977,676.1628,728.1983,673.97,737.8" style="stroke:#181818;stroke-width:1;"/><text fill="#000000" font-family="sans-serif" font-size="13" lengthAdjust="spacing" textLength="77.9238" x="772.5" y="660.5169">if raw query</text></g><!--link sensor to rawTags--><g id="link_sensor_rawTags"><path d="M998.56,753.55 C962.83,753.55 926.03,753.55 891.88,753.55 " fill="#FFFFFF" fill-opacity="0.00000" id="sensor-to-rawTags" style="stroke:#181818;stroke-width:1;stroke-dasharray:7.0,7.0;"/><polygon fill="#181818" points="885.88,753.55,894.88,757.55,890.88,753.55,894.88,749.55,885.88,753.55" style="stroke:#181818;stroke-width:1;"/><text fill="#000000" font-family="sans-serif" font-size="13" lengthAdjust="spacing" textLength="77.9238" x="903.71" y="746.6169">if raw query</text></g><!--reverse link active to group--><g id="link_active_group"><path d="M1953.2146,478.2544 C1934.5246,458.3344 1906.28,432.77 1871,420.4 C1848.05,412.35 1313.22,389.35 1181,420.4 C1125.67,433.39 1067.25,466.51 1035.66,486.27 " fill="#FFFFFF" fill-opacity="0.00000" id="active-backto-group" style="stroke:#181818;stroke-width:1;stroke-dasharray:7.0,7.0;"/><polygon fill="#181818" points="1957.32,482.63,1954.079,473.3297,1953.8988,478.9837,1948.2448,478.8036,1957.32,482.63" style="stroke:#181818;stroke-width:1;"/><text fill="#000000" font-family="sans-serif" font-size="13" lengthAdjust="spacing" textLength="79.8662" x="1372.5" y="408.4669">if text query</text></g><!--reverse link messages to group--><g id="link_messages_group"><path d="M1190.47,501.83 C1154.12,501.83 1116.84,501.83 1081.33,501.83 " fill="#FFFFFF" fill-opacity="0.00000" id="messages-backto-group" style="stroke:#181818;stroke-width:1;stroke-dasharray:7.0,7.0;"/><polygon fill="#181818" points="1196.47,501.83,1187.47,497.83,1191.47,501.83,1187.47,505.83,1196.47,501.83" style="stroke:#181818;stroke-width:1;"/><text fill="#000000" font-family="sans-serif" font-size="13" lengthAdjust="spacing" textLength="79.8662" x="1099.46" y="494.8969">if text query</text></g><!--reverse link status to group--><g id="link_status_group"><path d="M1436.1375,480.8902 C1420.9275,461.8302 1396.72,435.6 1365,420.4 C1358.32,417.2 1355.89,418.58 1348.5,418.06 C1274.23,412.8 1253.35,402.85 1181,420.4 C1125.93,433.77 1067.65,466.58 1035.96,486.23 " fill="#FFFFFF" fill-opacity="0.00000" id="status-backto-group" style="stroke:#181818;stroke-width:1;stroke-dasharray:7.0,7.0;"/><polygon fill="#181818" points="1439.88,485.58,1437.3928,476.0504,1436.7613,481.6719,1431.1398,481.0403,1439.88,485.58" style="stroke:#181818;stroke-width:1;"/><text fill="#000000" font-family="sans-serif" font-size="13" lengthAdjust="spacing" textLength="79.8662" x="1268.5" y="408.4669">if text query</text></g><!--reverse link priority to group--><g id="link_priority_group"><path d="M1612.598,480.3446 C1600.108,460.1146 1578.91,431.79 1547.5,418.06 C1472.87,385.43 1260.33,401.95 1181,420.4 C1125.65,433.28 1067.23,466.43 1035.65,486.24 " fill="#FFFFFF" fill-opacity="0.00000" id="priority-backto-group" style="stroke:#181818;stroke-width:1;stroke-dasharray:7.0,7.0;"/><polygon fill="#181818" points="1615.75,485.45,1614.4255,475.6906,1613.1233,481.1955,1607.6184,479.8933,1615.75,485.45" style="stroke:#181818;stroke-width:1;"/><text fill="#000000" font-family="sans-serif" font-size="13" lengthAdjust="spacing" textLength="79.8662" x="1467.5" y="408.4669">if text query</text></g><!--reverse link tags to group--><g id="link_tags_group"><path d="M1778.543,481.9202 C1765.573,462.3702 1743.13,433.97 1711,420.4 C1649.16,394.29 1163.17,413.6 1147.5,418.06 C1100.94,431.29 1054.72,465.57 1030.13,485.95 " fill="#FFFFFF" fill-opacity="0.00000" id="tags-backto-group" style="stroke:#181818;stroke-width:1;stroke-dasharray:7.0,7.0;"/><polygon fill="#181818" points="1781.86,486.92,1780.2177,477.209,1779.0959,482.7535,1773.5514,481.6317,1781.86,486.92" style="stroke:#181818;stroke-width:1;"/><text fill="#000000" font-family="sans-serif" font-size="13" lengthAdjust="spacing" textLength="79.8662" x="1148.5" y="408.4669">if text query</text></g><!--reverse link active to sensor--><g id="link_active_sensor"><path d="M1938.9116,523.3788 C1895.1116,548.4288 1815.46,591.28 1738,617.45 C1521.66,690.55 1251.84,730.21 1132.15,745.31 " fill="#FFFFFF" fill-opacity="0.00000" id="active-backto-sensor" style="stroke:#181818;stroke-width:1;stroke-dasharray:7.0,7.0;"/><polygon fill="#181818" points="1944.12,520.4,1934.3216,521.3959,1939.7797,522.8823,1938.2933,528.3404,1944.12,520.4" style="stroke:#181818;stroke-width:1;"/><text fill="#000000" font-family="sans-serif" font-size="13" lengthAdjust="spacing" textLength="79.8662" x="1820" y="605.4169">if text query</text></g><!--reverse link messages to sensor--><g id="link_messages_sensor"><path d="M1254.9766,523.8749 C1218.1966,569.3449 1118.98,691.99 1082.78,736.75 " fill="#FFFFFF" fill-opacity="0.00000" id="messages-backto-sensor" style="stroke:#181818;stroke-width:1;stroke-dasharray:7.0,7.0;"/><polygon fill="#181818" points="1258.75,519.21,1249.98,523.6918,1255.6055,523.0974,1256.1999,528.723,1258.75,519.21" style="stroke:#181818;stroke-width:1;"/><text fill="#000000" font-family="sans-serif" font-size="13" lengthAdjust="spacing" textLength="79.8662" x="1205" y="605.4169">if text query</text></g><!--reverse link status to sensor--><g id="link_status_sensor"><path d="M1427.4905,521.4339 C1397.7905,543.8439 1344.36,583.45 1293,617.45 C1223.17,663.67 1137.81,713.64 1095.83,737.8 " fill="#FFFFFF" fill-opacity="0.00000" id="status-backto-sensor" style="stroke:#181818;stroke-width:1;stroke-dasharray:7.0,7.0;"/><polygon fill="#181818" points="1432.28,517.82,1422.6864,520.0479,1428.2887,520.8316,1427.505,526.4339,1432.28,517.82" style="stroke:#181818;stroke-width:1;"/><text fill="#000000" font-family="sans-serif" font-size="13" lengthAdjust="spacing" textLength="79.8662" x="1342" y="605.4169">if text query</text></g><!--reverse link priority to sensor--><g id="link_priority_sensor"><path d="M1598.1488,520.6345 C1562.7888,543.7645 1495.39,586.25 1430,617.45 C1318.09,670.85 1179.05,717.88 1111.17,739.67 " fill="#FFFFFF" fill-opacity="0.00000" id="priority-backto-sensor" style="stroke:#181818;stroke-width:1;stroke-dasharray:7.0,7.0;"/><polygon fill="#181818" points="1603.17,517.35,1593.4486,518.9293,1598.9857,520.0871,1597.8279,525.6242,1603.17,517.35" style="stroke:#181818;stroke-width:1;"/><text fill="#000000" font-family="sans-serif" font-size="13" lengthAdjust="spacing" textLength="79.8662" x="1492" y="605.4169">if text query</text></g><!--reverse link tags to sensor--><g id="link_tags_sensor"><path d="M1765.1853,519.5069 C1728.2653,542.9569 1653.22,588.35 1580,617.45 C1419.76,681.13 1219.41,724.21 1124.58,742.55 " fill="#FFFFFF" fill-opacity="0.00000" id="tags-backto-sensor" style="stroke:#181818;stroke-width:1;stroke-dasharray:7.0,7.0;"/><polygon fill="#181818" points="1770.25,516.29,1760.5083,517.7389,1766.0294,518.9708,1764.7975,524.4918,1770.25,516.29" style="stroke:#181818;stroke-width:1;"/><text fill="#000000" font-family="sans-serif" font-size="13" lengthAdjust="spacing" textLength="79.8662" x="1650" y="605.4169">if text query</text></g><!--link sensor to channel--><g id="link_sensor_channel"><path d="M1070,770.39 C1070,799.64 1070,855.83 1070,885.53 " fill="#FFFFFF" fill-opacity="0.00000" id="sensor-to-channel" style="stroke:#181818;stroke-width:1;"/><polygon fill="#181818" points="1070,891.53,1074,882.53,1070,886.53,1066,882.53,1070,891.53" style="stroke:#181818;stroke-width:1;"/><text fill="#000000" font-family="sans-serif" font-size="13" lengthAdjust="spacing" textLength="102.6162" x="1071" y="817.7069">if metrics query</text></g><!--link channel to timeRange--><g id="link_channel_timeRange"><path d="M1070,926.67 C1070,943.5 1070,963.45 1070,981.01 " fill="#FFFFFF" fill-opacity="0.00000" id="channel-to-timeRange" style="stroke:#181818;stroke-width:1;"/><polygon fill="#181818" points="1070,987.01,1074,978.01,1070,982.01,1066,978.01,1070,987.01" style="stroke:#181818;stroke-width:1;"/></g><!--link timeRange to histGraph--><g id="link_timeRange_histGraph"><path d="M1070,1026.56 C1070,1043.82 1070,1063.37 1070,1081.13 " fill="#FFFFFF" fill-opacity="0.00000" id="timeRange-to-histGraph" style="stroke:#181818;stroke-width:1;"/><polygon fill="#181818" points="1070,1087.13,1074,1078.13,1070,1082.13,1066,1078.13,1070,1087.13" style="stroke:#181818;stroke-width:1;"/></g><!--SRC=[ZPN1Rjim38RlVWeXbvpQ1zYXG94MsQL3LdkxQovh2x5iLvAR6SFUVH8bgt8c9iqX4UcF37zAbFLHz2DNN39Ucq6LPkw0yHFeGK9He8_zqA2AGa5jUD_Onvl3SxLdtoTGCojdRK1ks9-2sS_8woDlm3zxV14ksZzndqb3pRMDBw6poKA6QXvXmxXcRyvqrly1Zxq1nPxvoSSWhlW93OgkuBT9S6DDWW_bF85HejP8Ixz6zc-1Fud-tI3bq3CV9-pgm4sxkQ1qhuPfnCIDMv7S0xoBsdVZ1PSaMKAl1uManYLHgklPlR5YVaq6TBP6HAoETs2buMRIItkzCn_m15hRdOxiOkVfTLvlvSc34eCI9cxnOkVfYZSngriJJVWsACcxQttuAI3N24vq0V5L6oJPWrqBzJ5DgeaMOD9L3qQo0SZ63XXQVZZOx47eiUFpfOEwQtdVGuSPQxycsKf8i3FPD_x06ckYHLJwLMXx7OZQRiHUyR75eDOwqGgbs-BTRSDkRkwI-o2kq1y7V-t-6F2rVndbOikoSrii-P3synbp9RwG9_7WDzfXMFqFUi9GsZ-DjvR_DnzqgqJJcjkxZp5ZNvXuTQRNdU6MitQTz0VjEhSSjEkaEsRdLE4rVa9B1gJ4PD2ycWn8oScWMJtRv9snsgmENbqSJyIv4xBkLe3aIXY9wKGK2OqhGIHcefW4YQel5tz6aTMVSKJvPnHP_ncN5x1TtiX-BqAC6wvmC_cGPIvzrF88RuHu8yKL-kEbymy0]--></g></svg>