<svg xmlns="http://www.w3.org/2000/svg" xmlns:xlink="http://www.w3.org/1999/xlink" contentStyleType="text/css" data-diagram-type="SEQUENCE" height="1373px" preserveAspectRatio="none" style="width:809px;height:1373px;background:#FFFFFF;" version="1.1" viewBox="0 0 809 1373" width="809px" zoomAndPan="magnify"><defs/><g><rect fill="#FFFFFF" fill-opacity="0.00000" height="583.1328" style="stroke:#000000;stroke-width:1.5;" width="610.4512" x="182.0649" y="491.0234"/><g><title>User</title><rect fill="#FFFFFF" fill-opacity="0.00000" height="1211.6563" width="8" x="19.9551" y="81.2969"/><line style="stroke:#181818;stroke-width:0.5;stroke-dasharray:5.0,5.0;" x1="23" x2="23" y1="81.2969" y2="1292.9531"/></g><g><title>Grafana</title><rect fill="#FFFFFF" fill-opacity="0.00000" height="1211.6563" width="8" x="223.1367" y="81.2969"/><line style="stroke:#181818;stroke-width:0.5;stroke-dasharray:5.0,5.0;" x1="227.0649" x2="227.0649" y1="81.2969" y2="1292.9531"/></g><g><title>PRTG Plugin</title><rect fill="#FFFFFF" fill-opacity="0.00000" height="1211.6563" width="8" x="380.8882" y="81.2969"/><line style="stroke:#181818;stroke-width:0.5;stroke-dasharray:5.0,5.0;" x1="384.4507" x2="384.4507" y1="81.2969" y2="1292.9531"/></g><g><title>PRTG API</title><rect fill="#FFFFFF" fill-opacity="0.00000" height="1211.6563" width="8" x="571.6094" y="81.2969"/><line style="stroke:#181818;stroke-width:0.5;stroke-dasharray:5.0,5.0;" x1="575.5249" x2="575.5249" y1="81.2969" y2="1292.9531"/></g><g><title>PRTG Server</title><rect fill="#FFFFFF" fill-opacity="0.00000" height="1211.6563" width="8" x="731.5508" y="81.2969"/><line style="stroke:#181818;stroke-width:0.5;stroke-dasharray:5.0,5.0;" x1="734.5854" x2="734.5854" y1="81.2969" y2="1292.9531"/></g><text fill="#000000" font-family="sans-serif" font-size="14" lengthAdjust="spacing" textLength="31.9102" x="5" y="77.9951">User</text><ellipse cx="23.9551" cy="13.5" fill="#E2E2F0" rx="8" ry="8" style="stroke:#181818;stroke-width:0.5;"/><path d="M23.9551,21.5 L23.9551,48.5 M10.9551,29.5 L36.9551,29.5 M23.9551,48.5 L10.9551,63.5 M23.9551,48.5 L36.9551,63.5 " fill="#FFFFFF" fill-opacity="0.00000" style="stroke:#181818;stroke-width:0.5;"/><text fill="#000000" font-family="sans-serif" font-size="14" lengthAdjust="spacing" textLength="31.9102" x="5" y="1304.9482">User</text><ellipse cx="23.9551" cy="1316.75" fill="#E2E2F0" rx="8" ry="8" style="stroke:#181818;stroke-width:0.5;"/><path d="M23.9551,1324.75 L23.9551,1351.75 M10.9551,1332.75 L36.9551,1332.75 M23.9551,1351.75 L10.9551,1366.75 M23.9551,1351.75 L36.9551,1366.75 " fill="#FFFFFF" fill-opacity="0.00000" style="stroke:#181818;stroke-width:0.5;"/><rect fill="#E2E2F0" height="30.2969" rx="2.5" ry="2.5" style="stroke:#181818;stroke-width:0.5;" width="70.1436" x="192.0649" y="50"/><text fill="#000000" font-family="sans-serif" font-size="14" lengthAdjust="spacing" textLength="56.1436" x="199.0649" y="69.9951">Grafana</text><rect fill="#E2E2F0" height="30.2969" rx="2.5" ry="2.5" style="stroke:#181818;stroke-width:0.5;" width="70.1436" x="192.0649" y="1291.9531"/><text fill="#000000" font-family="sans-serif" font-size="14" lengthAdjust="spacing" textLength="56.1436" x="199.0649" y="1311.9482">Grafana</text><rect fill="#E2E2F0" height="30.2969" rx="2.5" ry="2.5" style="stroke:#181818;stroke-width:0.5;" width="98.875" x="335.4507" y="50"/><text fill="#000000" font-family="sans-serif" font-size="14" lengthAdjust="spacing" textLength="84.875" x="342.4507" y="69.9951">PRTG Plugin</text><rect fill="#E2E2F0" height="30.2969" rx="2.5" ry="2.5" style="stroke:#181818;stroke-width:0.5;" width="98.875" x="335.4507" y="1291.9531"/><text fill="#000000" font-family="sans-serif" font-size="14" lengthAdjust="spacing" textLength="84.875" x="342.4507" y="1311.9482">PRTG Plugin</text><rect fill="#E2E2F0" height="30.2969" rx="2.5" ry="2.5" style="stroke:#181818;stroke-width:0.5;" width="78.1689" x="536.5249" y="50"/><text fill="#000000" font-family="sans-serif" font-size="14" lengthAdjust="spacing" textLength="64.1689" x="543.5249" y="69.9951">PRTG API</text><rect fill="#E2E2F0" height="30.2969" rx="2.5" ry="2.5" style="stroke:#181818;stroke-width:0.5;" width="78.1689" x="536.5249" y="1291.9531"/><text fill="#000000" font-family="sans-serif" font-size="14" lengthAdjust="spacing" textLength="64.1689" x="543.5249" y="1311.9482">PRTG API</text><text fill="#000000" font-family="sans-serif" font-size="14" lengthAdjust="spacing" textLength="87.9307" x="688.5854" y="77.9951">PRTG Server</text><path d="M717.5508,29 C717.5508,19 735.5508,19 735.5508,19 C735.5508,19 753.5508,19 753.5508,29 L753.5508,55 C753.5508,65 735.5508,65 735.5508,65 C735.5508,65 717.5508,65 717.5508,55 L717.5508,29 " fill="#E2E2F0" style="stroke:#181818;stroke-width:1.5;"/><path d="M717.5508,29 C717.5508,39 735.5508,39 735.5508,39 C735.5508,39 753.5508,39 753.5508,29 " fill="#FFFFFF" fill-opacity="0.00000" style="stroke:#181818;stroke-width:1.5;"/><text fill="#000000" font-family="sans-serif" font-size="14" lengthAdjust="spacing" textLength="87.9307" x="688.5854" y="1304.9482">PRTG Server</text><path d="M717.5508,1318.25 C717.5508,1308.25 735.5508,1308.25 735.5508,1308.25 C735.5508,1308.25 753.5508,1308.25 753.5508,1318.25 L753.5508,1344.25 C753.5508,1354.25 735.5508,1354.25 735.5508,1354.25 C735.5508,1354.25 717.5508,1354.25 717.5508,1344.25 L717.5508,1318.25 " fill="#E2E2F0" style="stroke:#181818;stroke-width:1.5;"/><path d="M717.5508,1318.25 C717.5508,1328.25 735.5508,1328.25 735.5508,1328.25 C735.5508,1328.25 753.5508,1328.25 753.5508,1318.25 " fill="#FFFFFF" fill-opacity="0.00000" style="stroke:#181818;stroke-width:1.5;"/><rect fill="#EEEEEE" height="3" style="stroke:#EEEEEE;stroke-width:1;" width="802.5161" x="0" y="111.8633"/><line style="stroke:#000000;stroke-width:1;" x1="0" x2="802.5161" y1="111.8633" y2="111.8633"/><line style="stroke:#000000;stroke-width:1;" x1="0" x2="802.5161" y1="114.8633" y2="114.8633"/><rect fill="#EEEEEE" height="23.1328" style="stroke:#000000;stroke-width:2;" width="108.4531" x="347.0315" y="101.2969"/><text fill="#000000" font-family="sans-serif" font-size="13" font-weight="bold" lengthAdjust="spacing" textLength="89.9272" x="353.0315" y="117.3638">Initial Setup</text><polygon fill="#181818" points="215.1367,151.5625,225.1367,155.5625,215.1367,159.5625,219.1367,155.5625" style="stroke:#181818;stroke-width:1;"/><line style="stroke:#181818;stroke-width:1;" x1="23.9551" x2="221.1367" y1="155.5625" y2="155.5625"/><text fill="#000000" font-family="sans-serif" font-size="13" lengthAdjust="spacing" textLength="179.1816" x="30.9551" y="150.4966">Configure PRTG datasource</text><polygon fill="#181818" points="372.8882,180.6953,382.8882,184.6953,372.8882,188.6953,376.8882,184.6953" style="stroke:#181818;stroke-width:1;"/><line style="stroke:#181818;stroke-width:1;" x1="227.1367" x2="378.8882" y1="184.6953" y2="184.6953"/><text fill="#000000" font-family="sans-serif" font-size="13" lengthAdjust="spacing" textLength="130.165" x="234.1367" y="179.6294">Initialize connection</text><polygon fill="#181818" points="563.6094,224.9609,573.6094,228.9609,563.6094,232.9609,567.6094,228.9609" style="stroke:#181818;stroke-width:1;"/><line style="stroke:#181818;stroke-width:1;" x1="384.8882" x2="569.6094" y1="228.9609" y2="228.9609"/><text fill="#000000" font-family="sans-serif" font-size="13" lengthAdjust="spacing" textLength="129.5684" x="391.8882" y="208.7622">Validate credentials</text><text fill="#000000" font-family="sans-serif" font-size="13" lengthAdjust="spacing" textLength="155.5049" x="391.8882" y="223.895">(username + passhash)</text><polygon fill="#181818" points="723.5508,254.0938,733.5508,258.0938,723.5508,262.0938,727.5508,258.0938" style="stroke:#181818;stroke-width:1;"/><line style="stroke:#181818;stroke-width:1;" x1="575.6094" x2="729.5508" y1="258.0938" y2="258.0938"/><text fill="#000000" font-family="sans-serif" font-size="13" lengthAdjust="spacing" textLength="83.624" x="582.6094" y="253.0278">Authenticate</text><polygon fill="#181818" points="586.6094,283.2266,576.6094,287.2266,586.6094,291.2266,582.6094,287.2266" style="stroke:#181818;stroke-width:1;"/><line style="stroke:#181818;stroke-width:1;stroke-dasharray:2.0,2.0;" x1="580.6094" x2="734.5508" y1="287.2266" y2="287.2266"/><text fill="#000000" font-family="sans-serif" font-size="13" lengthAdjust="spacing" textLength="93.9326" x="592.6094" y="282.1606">Auth response</text><polygon fill="#181818" points="395.8882,312.3594,385.8882,316.3594,395.8882,320.3594,391.8882,316.3594" style="stroke:#181818;stroke-width:1;"/><line style="stroke:#181818;stroke-width:1;stroke-dasharray:2.0,2.0;" x1="389.8882" x2="574.6094" y1="316.3594" y2="316.3594"/><text fill="#000000" font-family="sans-serif" font-size="13" lengthAdjust="spacing" textLength="117.6348" x="401.8882" y="311.2935">Connection status</text><polygon fill="#181818" points="238.1367,341.4922,228.1367,345.4922,238.1367,349.4922,234.1367,345.4922" style="stroke:#181818;stroke-width:1;"/><line style="stroke:#181818;stroke-width:1;stroke-dasharray:2.0,2.0;" x1="232.1367" x2="383.8882" y1="345.4922" y2="345.4922"/><text fill="#000000" font-family="sans-serif" font-size="13" lengthAdjust="spacing" textLength="79.0347" x="244.1367" y="340.4263">Setup result</text><polygon fill="#181818" points="34.9551,370.625,24.9551,374.625,34.9551,378.625,30.9551,374.625" style="stroke:#181818;stroke-width:1;"/><line style="stroke:#181818;stroke-width:1;stroke-dasharray:2.0,2.0;" x1="28.9551" x2="226.1367" y1="374.625" y2="374.625"/><text fill="#000000" font-family="sans-serif" font-size="13" lengthAdjust="spacing" textLength="152.0137" x="40.9551" y="369.5591">Configuration feedback</text><rect fill="#EEEEEE" height="3" style="stroke:#EEEEEE;stroke-width:1;" width="802.5161" x="0" y="403.1914"/><line style="stroke:#000000;stroke-width:1;" x1="0" x2="802.5161" y1="403.1914" y2="403.1914"/><line style="stroke:#000000;stroke-width:1;" x1="0" x2="802.5161" y1="406.1914" y2="406.1914"/><rect fill="#EEEEEE" height="23.1328" style="stroke:#000000;stroke-width:2;" width="140.4136" x="331.0513" y="392.625"/><text fill="#000000" font-family="sans-serif" font-size="13" font-weight="bold" lengthAdjust="spacing" textLength="121.8877" x="337.0513" y="408.6919">Data Query Flow</text><polygon fill="#181818" points="215.1367,442.8906,225.1367,446.8906,215.1367,450.8906,219.1367,446.8906" style="stroke:#181818;stroke-width:1;"/><line style="stroke:#181818;stroke-width:1;" x1="23.9551" x2="221.1367" y1="446.8906" y2="446.8906"/><text fill="#000000" font-family="sans-serif" font-size="13" lengthAdjust="spacing" textLength="158.2725" x="30.9551" y="441.8247">Create dashboard query</text><polygon fill="#181818" points="372.8882,472.0234,382.8882,476.0234,372.8882,480.0234,376.8882,476.0234" style="stroke:#181818;stroke-width:1;"/><line style="stroke:#181818;stroke-width:1;" x1="227.1367" x2="378.8882" y1="476.0234" y2="476.0234"/><text fill="#000000" font-family="sans-serif" font-size="13" lengthAdjust="spacing" textLength="94.0469" x="234.1367" y="470.9575">Execute query</text><path d="M182.0649,491.0234 L246.5078,491.0234 L246.5078,498.1563 L236.5078,508.1563 L182.0649,508.1563 L182.0649,491.0234 " fill="#EEEEEE" style="stroke:#000000;stroke-width:1.5;"/><rect fill="#FFFFFF" fill-opacity="0.00000" height="583.1328" style="stroke:#000000;stroke-width:1.5;" width="610.4512" x="182.0649" y="491.0234"/><text fill="#000000" font-family="sans-serif" font-size="13" font-weight="bold" lengthAdjust="spacing" textLength="19.4429" x="197.0649" y="504.0903">alt</text><text fill="#000000" font-family="sans-serif" font-size="11" font-weight="bold" lengthAdjust="spacing" textLength="97.0503" x="261.5078" y="503.2339">[Metrics Query]</text><polygon fill="#181818" points="563.6094,540.4219,573.6094,544.4219,563.6094,548.4219,567.6094,544.4219" style="stroke:#181818;stroke-width:1;"/><line style="stroke:#181818;stroke-width:1;" x1="384.8882" x2="569.6094" y1="544.4219" y2="544.4219"/><text fill="#000000" font-family="sans-serif" font-size="13" lengthAdjust="spacing" textLength="166.7212" x="391.8882" y="524.2231">GET /api/historicdata.json</text><text fill="#000000" font-family="sans-serif" font-size="13" lengthAdjust="spacing" textLength="93.4121" x="391.8882" y="539.356">(sensors data)</text><polygon fill="#181818" points="723.5508,569.5547,733.5508,573.5547,723.5508,577.5547,727.5508,573.5547" style="stroke:#181818;stroke-width:1;"/><line style="stroke:#181818;stroke-width:1;" x1="575.6094" x2="729.5508" y1="573.5547" y2="573.5547"/><text fill="#000000" font-family="sans-serif" font-size="13" lengthAdjust="spacing" textLength="135.9414" x="582.6094" y="568.4888">Fetch sensor metrics</text><polygon fill="#181818" points="586.6094,598.6875,576.6094,602.6875,586.6094,606.6875,582.6094,602.6875" style="stroke:#181818;stroke-width:1;"/><line style="stroke:#181818;stroke-width:1;stroke-dasharray:2.0,2.0;" x1="580.6094" x2="734.5508" y1="602.6875" y2="602.6875"/><text fill="#000000" font-family="sans-serif" font-size="13" lengthAdjust="spacing" textLength="108.2593" x="592.6094" y="597.6216">Raw sensor data</text><polygon fill="#181818" points="395.8882,627.8203,385.8882,631.8203,395.8882,635.8203,391.8882,631.8203" style="stroke:#181818;stroke-width:1;"/><line style="stroke:#181818;stroke-width:1;stroke-dasharray:2.0,2.0;" x1="389.8882" x2="574.6094" y1="631.8203" y2="631.8203"/><text fill="#000000" font-family="sans-serif" font-size="13" lengthAdjust="spacing" textLength="120.6182" x="401.8882" y="626.7544">Formatted metrics</text><line style="stroke:#181818;stroke-width:1;" x1="384.8882" x2="426.8882" y1="660.9531" y2="660.9531"/><line style="stroke:#181818;stroke-width:1;" x1="426.8882" x2="426.8882" y1="660.9531" y2="673.9531"/><line style="stroke:#181818;stroke-width:1;" x1="385.8882" x2="426.8882" y1="673.9531" y2="673.9531"/><polygon fill="#181818" points="395.8882,669.9531,385.8882,673.9531,395.8882,677.9531,391.8882,673.9531" style="stroke:#181818;stroke-width:1;"/><text fill="#000000" font-family="sans-serif" font-size="13" lengthAdjust="spacing" textLength="100.2168" x="391.8882" y="655.8872">Transform data</text><polygon fill="#181818" points="238.1367,699.0859,228.1367,703.0859,238.1367,707.0859,234.1367,703.0859" style="stroke:#181818;stroke-width:1;"/><line style="stroke:#181818;stroke-width:1;stroke-dasharray:2.0,2.0;" x1="232.1367" x2="383.8882" y1="703.0859" y2="703.0859"/><text fill="#000000" font-family="sans-serif" font-size="13" lengthAdjust="spacing" textLength="100.6865" x="244.1367" y="698.02">Display metrics</text><line style="stroke:#000000;stroke-width:1;stroke-dasharray:2.0,2.0;" x1="182.0649" x2="792.5161" y1="712.0859" y2="712.0859"/><text fill="#000000" font-family="sans-serif" font-size="11" font-weight="bold" lengthAdjust="spacing" textLength="143.4351" x="187.0649" y="722.2964">[Historical Data Query]</text><polygon fill="#181818" points="563.6094,743.0234,573.6094,747.0234,563.6094,751.0234,567.6094,747.0234" style="stroke:#181818;stroke-width:1;"/><line style="stroke:#181818;stroke-width:1;" x1="384.8882" x2="569.6094" y1="747.0234" y2="747.0234"/><text fill="#000000" font-family="sans-serif" font-size="13" lengthAdjust="spacing" textLength="166.7212" x="391.8882" y="741.9575">GET /api/historicdata.json</text><polygon fill="#181818" points="723.5508,772.1563,733.5508,776.1563,723.5508,780.1563,727.5508,776.1563" style="stroke:#181818;stroke-width:1;"/><line style="stroke:#181818;stroke-width:1;" x1="575.6094" x2="729.5508" y1="776.1563" y2="776.1563"/><text fill="#000000" font-family="sans-serif" font-size="13" lengthAdjust="spacing" textLength="132.8628" x="582.6094" y="771.0903">Fetch historical data</text><polygon fill="#181818" points="586.6094,801.2891,576.6094,805.2891,586.6094,809.2891,582.6094,805.2891" style="stroke:#181818;stroke-width:1;"/><line style="stroke:#181818;stroke-width:1;stroke-dasharray:2.0,2.0;" x1="580.6094" x2="734.5508" y1="805.2891" y2="805.2891"/><text fill="#000000" font-family="sans-serif" font-size="13" lengthAdjust="spacing" textLength="107.3071" x="592.6094" y="800.2231">Historical values</text><polygon fill="#181818" points="395.8882,830.4219,385.8882,834.4219,395.8882,838.4219,391.8882,834.4219" style="stroke:#181818;stroke-width:1;"/><line style="stroke:#181818;stroke-width:1;stroke-dasharray:2.0,2.0;" x1="389.8882" x2="574.6094" y1="834.4219" y2="834.4219"/><text fill="#000000" font-family="sans-serif" font-size="13" lengthAdjust="spacing" textLength="108.2593" x="401.8882" y="829.356">Time series data</text><line style="stroke:#181818;stroke-width:1;" x1="384.8882" x2="426.8882" y1="863.5547" y2="863.5547"/><line style="stroke:#181818;stroke-width:1;" x1="426.8882" x2="426.8882" y1="863.5547" y2="876.5547"/><line style="stroke:#181818;stroke-width:1;" x1="385.8882" x2="426.8882" y1="876.5547" y2="876.5547"/><polygon fill="#181818" points="395.8882,872.5547,385.8882,876.5547,395.8882,880.5547,391.8882,876.5547" style="stroke:#181818;stroke-width:1;"/><text fill="#000000" font-family="sans-serif" font-size="13" lengthAdjust="spacing" textLength="122.6367" x="391.8882" y="858.4888">Format time series</text><polygon fill="#181818" points="238.1367,901.6875,228.1367,905.6875,238.1367,909.6875,234.1367,905.6875" style="stroke:#181818;stroke-width:1;"/><line style="stroke:#181818;stroke-width:1;stroke-dasharray:2.0,2.0;" x1="232.1367" x2="383.8882" y1="905.6875" y2="905.6875"/><text fill="#000000" font-family="sans-serif" font-size="13" lengthAdjust="spacing" textLength="90.105" x="244.1367" y="900.6216">Display graph</text><line style="stroke:#000000;stroke-width:1;stroke-dasharray:2.0,2.0;" x1="182.0649" x2="792.5161" y1="914.6875" y2="914.6875"/><text fill="#000000" font-family="sans-serif" font-size="11" font-weight="bold" lengthAdjust="spacing" textLength="91.3623" x="187.0649" y="924.8979">[Status Query]</text><polygon fill="#181818" points="563.6094,945.625,573.6094,949.625,563.6094,953.625,567.6094,949.625" style="stroke:#181818;stroke-width:1;"/><line style="stroke:#181818;stroke-width:1;" x1="384.8882" x2="569.6094" y1="949.625" y2="949.625"/><text fill="#000000" font-family="sans-serif" font-size="13" lengthAdjust="spacing" textLength="129.6064" x="391.8882" y="944.5591">GET /api/status.json</text><polygon fill="#181818" points="723.5508,974.7578,733.5508,978.7578,723.5508,982.7578,727.5508,978.7578" style="stroke:#181818;stroke-width:1;"/><line style="stroke:#181818;stroke-width:1;" x1="575.6094" x2="729.5508" y1="978.7578" y2="978.7578"/><text fill="#000000" font-family="sans-serif" font-size="13" lengthAdjust="spacing" textLength="80.0376" x="582.6094" y="973.6919">Fetch status</text><polygon fill="#181818" points="586.6094,1003.8906,576.6094,1007.8906,586.6094,1011.8906,582.6094,1007.8906" style="stroke:#181818;stroke-width:1;"/><line style="stroke:#181818;stroke-width:1;stroke-dasharray:2.0,2.0;" x1="580.6094" x2="734.5508" y1="1007.8906" y2="1007.8906"/><text fill="#000000" font-family="sans-serif" font-size="13" lengthAdjust="spacing" textLength="74.8389" x="592.6094" y="1002.8247">Status data</text><polygon fill="#181818" points="395.8882,1033.0234,385.8882,1037.0234,395.8882,1041.0234,391.8882,1037.0234" style="stroke:#181818;stroke-width:1;"/><line style="stroke:#181818;stroke-width:1;stroke-dasharray:2.0,2.0;" x1="389.8882" x2="574.6094" y1="1037.0234" y2="1037.0234"/><text fill="#000000" font-family="sans-serif" font-size="13" lengthAdjust="spacing" textLength="120.8149" x="401.8882" y="1031.9575">Status information</text><polygon fill="#181818" points="238.1367,1062.1563,228.1367,1066.1563,238.1367,1070.1563,234.1367,1066.1563" style="stroke:#181818;stroke-width:1;"/><line style="stroke:#181818;stroke-width:1;stroke-dasharray:2.0,2.0;" x1="232.1367" x2="383.8882" y1="1066.1563" y2="1066.1563"/><text fill="#000000" font-family="sans-serif" font-size="13" lengthAdjust="spacing" textLength="91.9966" x="244.1367" y="1061.0903">Display status</text><rect fill="#EEEEEE" height="3" style="stroke:#EEEEEE;stroke-width:1;" width="802.5161" x="0" y="1101.7227"/><line style="stroke:#000000;stroke-width:1;" x1="0" x2="802.5161" y1="1101.7227" y2="1101.7227"/><line style="stroke:#000000;stroke-width:1;" x1="0" x2="802.5161" y1="1104.7227" y2="1104.7227"/><rect fill="#EEEEEE" height="23.1328" style="stroke:#000000;stroke-width:2;" width="125.7822" x="338.3669" y="1091.1563"/><text fill="#000000" font-family="sans-serif" font-size="13" font-weight="bold" lengthAdjust="spacing" textLength="107.2563" x="344.3669" y="1107.2231">Error Handling</text><polygon fill="#181818" points="563.6094,1141.4219,573.6094,1145.4219,563.6094,1149.4219,567.6094,1145.4219" style="stroke:#181818;stroke-width:1;"/><line style="stroke:#181818;stroke-width:1;" x1="384.8882" x2="569.6094" y1="1145.4219" y2="1145.4219"/><text fill="#000000" font-family="sans-serif" font-size="13" lengthAdjust="spacing" textLength="84.062" x="391.8882" y="1140.356">Request fails</text><polygon fill="#181818" points="395.8882,1170.5547,385.8882,1174.5547,395.8882,1178.5547,391.8882,1174.5547" style="stroke:#181818;stroke-width:1;"/><line style="stroke:#181818;stroke-width:1;stroke-dasharray:2.0,2.0;" x1="389.8882" x2="574.6094" y1="1174.5547" y2="1174.5547"/><text fill="#000000" font-family="sans-serif" font-size="13" lengthAdjust="spacing" textLength="95.6655" x="401.8882" y="1169.4888">Error response</text><line style="stroke:#181818;stroke-width:1;" x1="384.8882" x2="426.8882" y1="1203.6875" y2="1203.6875"/><line style="stroke:#181818;stroke-width:1;" x1="426.8882" x2="426.8882" y1="1203.6875" y2="1216.6875"/><line style="stroke:#181818;stroke-width:1;" x1="385.8882" x2="426.8882" y1="1216.6875" y2="1216.6875"/><polygon fill="#181818" points="395.8882,1212.6875,385.8882,1216.6875,395.8882,1220.6875,391.8882,1216.6875" style="stroke:#181818;stroke-width:1;"/><text fill="#000000" font-family="sans-serif" font-size="13" lengthAdjust="spacing" textLength="82.6211" x="391.8882" y="1198.6216">Format error</text><polygon fill="#181818" points="238.1367,1241.8203,228.1367,1245.8203,238.1367,1249.8203,234.1367,1245.8203" style="stroke:#181818;stroke-width:1;"/><line style="stroke:#181818;stroke-width:1;stroke-dasharray:2.0,2.0;" x1="232.1367" x2="383.8882" y1="1245.8203" y2="1245.8203"/><text fill="#000000" font-family="sans-serif" font-size="13" lengthAdjust="spacing" textLength="133.7515" x="244.1367" y="1240.7544">Show error message</text><polygon fill="#181818" points="34.9551,1270.9531,24.9551,1274.9531,34.9551,1278.9531,30.9551,1274.9531" style="stroke:#181818;stroke-width:1;"/><line style="stroke:#181818;stroke-width:1;stroke-dasharray:2.0,2.0;" x1="28.9551" x2="226.1367" y1="1274.9531" y2="1274.9531"/><text fill="#000000" font-family="sans-serif" font-size="13" lengthAdjust="spacing" textLength="84.0366" x="40.9551" y="1269.8872">Display error</text><!--SRC=[bLJ1Rjim3BthAuYULWnTxm4oe6YJj8S1MPhjj0jhqx4sH_94gLttzQCaEqvTPzroYI4-FZu-aSB2MmTVc9ngqNbTw1QDXvN32Ws-E3jRRxOhM3TXfyqP87UV4vYhzLq2oBygqUC3CdMXUtAFv58qVoerdyETqLvZ8qS-j32VgoW8BZxsEcPmRKsbTy4H99h8oZQuWbG7YUWiQDRJwTy4XJM62g-jKJaQSQ9h1by583G2SLIIYGdypRmBKjdWdk0zjCXS8zVdIX9YNbOyWwlWwvXHIBhAXt3HyyOWEEBM6gQSUIJj-g07sACFV91rt6tsGKX2uuS61H5z6Sp0n5CHbGzO_4XEteWny3cGUuPbOv-clNGK-owbjGUBheIV4JzbvE8N5K6W6Q2myV29lDC5vneAv3VoTRNOmYMs-hBMBBEbYtXN7xwpDU8kas7hEDtVUSeUMRiaNzIGOR3FjH9kRFC6dtfO91kuZkGlhTkZzrI-O1hqzhYjGyELW0UggLkvqTms-7mWKzJ8NDzsRShu3kR_dp6dZQW7yeEqiHD70Xwn2SIJNcorpBHCWYP-tUNOCl03-aqxTWxRkZFZFitqFtYGX_-DxhiDcMgwAtJowhkuDbLgI7Tb_jP7LurCcJPfuPpCrYsQij5c5nTfrCk6P2tOGuMwuLUBdjCFxy19fodYfX-1MlOtXMNYc7574qz1BpxX_W00]--></g></svg>