<svg xmlns="http://www.w3.org/2000/svg" xmlns:xlink="http://www.w3.org/1999/xlink" contentStyleType="text/css" data-diagram-type="SEQUENCE" height="1621px" preserveAspectRatio="none" style="width:1035px;height:1621px;background:#FFFFFF;" version="1.1" viewBox="0 0 1035 1621" width="1035px" zoomAndPan="magnify"><defs/><g><rect fill="#FFFFFF" fill-opacity="0.00000" height="757.9297" style="stroke:#000000;stroke-width:1.5;" width="836.3638" x="182.0649" y="564.4219"/><g><title>User</title><rect fill="#FFFFFF" fill-opacity="0.00000" height="1459.8516" width="8" x="19.9551" y="81.2969"/><line style="stroke:#181818;stroke-width:0.5;stroke-dasharray:5.0,5.0;" x1="23" x2="23" y1="81.2969" y2="1541.1484"/></g><g><title>Grafana</title><rect fill="#FFFFFF" fill-opacity="0.00000" height="1459.8516" width="8" x="223.1367" y="81.2969"/><line style="stroke:#181818;stroke-width:0.5;stroke-dasharray:5.0,5.0;" x1="227.0649" x2="227.0649" y1="81.2969" y2="1541.1484"/></g><g><title>PRTG Plugin</title><rect fill="#FFFFFF" fill-opacity="0.00000" height="1459.8516" width="8" x="380.8882" y="81.2969"/><line style="stroke:#181818;stroke-width:0.5;stroke-dasharray:5.0,5.0;" x1="384.4507" x2="384.4507" y1="81.2969" y2="1541.1484"/></g><g><title>Axios Client</title><rect fill="#FFFFFF" fill-opacity="0.00000" height="1459.8516" width="8" x="618.0171" y="81.2969"/><line style="stroke:#181818;stroke-width:0.5;stroke-dasharray:5.0,5.0;" x1="621.7212" x2="621.7212" y1="81.2969" y2="1541.1484"/></g><g><title>PRTG API</title><rect fill="#FFFFFF" fill-opacity="0.00000" height="1459.8516" width="8" x="797.522" y="81.2969"/><line style="stroke:#181818;stroke-width:0.5;stroke-dasharray:5.0,5.0;" x1="801.4375" x2="801.4375" y1="81.2969" y2="1541.1484"/></g><g><title>PRTG Server</title><rect fill="#FFFFFF" fill-opacity="0.00000" height="1459.8516" width="8" x="957.4634" y="81.2969"/><line style="stroke:#181818;stroke-width:0.5;stroke-dasharray:5.0,5.0;" x1="960.498" x2="960.498" y1="81.2969" y2="1541.1484"/></g><text fill="#000000" font-family="sans-serif" font-size="14" lengthAdjust="spacing" textLength="31.9102" x="5" y="77.9951">User</text><ellipse cx="23.9551" cy="13.5" fill="#E2E2F0" rx="8" ry="8" style="stroke:#181818;stroke-width:0.5;"/><path d="M23.9551,21.5 L23.9551,48.5 M10.9551,29.5 L36.9551,29.5 M23.9551,48.5 L10.9551,63.5 M23.9551,48.5 L36.9551,63.5 " fill="#FFFFFF" fill-opacity="0.00000" style="stroke:#181818;stroke-width:0.5;"/><text fill="#000000" font-family="sans-serif" font-size="14" lengthAdjust="spacing" textLength="31.9102" x="5" y="1553.1436">User</text><ellipse cx="23.9551" cy="1564.9453" fill="#E2E2F0" rx="8" ry="8" style="stroke:#181818;stroke-width:0.5;"/><path d="M23.9551,1572.9453 L23.9551,1599.9453 M10.9551,1580.9453 L36.9551,1580.9453 M23.9551,1599.9453 L10.9551,1614.9453 M23.9551,1599.9453 L36.9551,1614.9453 " fill="#FFFFFF" fill-opacity="0.00000" style="stroke:#181818;stroke-width:0.5;"/><rect fill="#E2E2F0" height="30.2969" rx="2.5" ry="2.5" style="stroke:#181818;stroke-width:0.5;" width="70.1436" x="192.0649" y="50"/><text fill="#000000" font-family="sans-serif" font-size="14" lengthAdjust="spacing" textLength="56.1436" x="199.0649" y="69.9951">Grafana</text><rect fill="#E2E2F0" height="30.2969" rx="2.5" ry="2.5" style="stroke:#181818;stroke-width:0.5;" width="70.1436" x="192.0649" y="1540.1484"/><text fill="#000000" font-family="sans-serif" font-size="14" lengthAdjust="spacing" textLength="56.1436" x="199.0649" y="1560.1436">Grafana</text><rect fill="#E2E2F0" height="30.2969" rx="2.5" ry="2.5" style="stroke:#181818;stroke-width:0.5;" width="98.875" x="335.4507" y="50"/><text fill="#000000" font-family="sans-serif" font-size="14" lengthAdjust="spacing" textLength="84.875" x="342.4507" y="69.9951">PRTG Plugin</text><rect fill="#E2E2F0" height="30.2969" rx="2.5" ry="2.5" style="stroke:#181818;stroke-width:0.5;" width="98.875" x="335.4507" y="1540.1484"/><text fill="#000000" font-family="sans-serif" font-size="14" lengthAdjust="spacing" textLength="84.875" x="342.4507" y="1560.1436">PRTG Plugin</text><rect fill="#E2E2F0" height="30.2969" rx="2.5" ry="2.5" style="stroke:#181818;stroke-width:0.5;" width="96.5918" x="573.7212" y="50"/><text fill="#000000" font-family="sans-serif" font-size="14" lengthAdjust="spacing" textLength="82.5918" x="580.7212" y="69.9951">Axios Client</text><rect fill="#E2E2F0" height="30.2969" rx="2.5" ry="2.5" style="stroke:#181818;stroke-width:0.5;" width="96.5918" x="573.7212" y="1540.1484"/><text fill="#000000" font-family="sans-serif" font-size="14" lengthAdjust="spacing" textLength="82.5918" x="580.7212" y="1560.1436">Axios Client</text><rect fill="#E2E2F0" height="30.2969" rx="2.5" ry="2.5" style="stroke:#181818;stroke-width:0.5;" width="78.1689" x="762.4375" y="50"/><text fill="#000000" font-family="sans-serif" font-size="14" lengthAdjust="spacing" textLength="64.1689" x="769.4375" y="69.9951">PRTG API</text><rect fill="#E2E2F0" height="30.2969" rx="2.5" ry="2.5" style="stroke:#181818;stroke-width:0.5;" width="78.1689" x="762.4375" y="1540.1484"/><text fill="#000000" font-family="sans-serif" font-size="14" lengthAdjust="spacing" textLength="64.1689" x="769.4375" y="1560.1436">PRTG API</text><text fill="#000000" font-family="sans-serif" font-size="14" lengthAdjust="spacing" textLength="87.9307" x="914.498" y="77.9951">PRTG Server</text><path d="M943.4634,29 C943.4634,19 961.4634,19 961.4634,19 C961.4634,19 979.4634,19 979.4634,29 L979.4634,55 C979.4634,65 961.4634,65 961.4634,65 C961.4634,65 943.4634,65 943.4634,55 L943.4634,29 " fill="#E2E2F0" style="stroke:#181818;stroke-width:1.5;"/><path d="M943.4634,29 C943.4634,39 961.4634,39 961.4634,39 C961.4634,39 979.4634,39 979.4634,29 " fill="#FFFFFF" fill-opacity="0.00000" style="stroke:#181818;stroke-width:1.5;"/><text fill="#000000" font-family="sans-serif" font-size="14" lengthAdjust="spacing" textLength="87.9307" x="914.498" y="1553.1436">PRTG Server</text><path d="M943.4634,1566.4453 C943.4634,1556.4453 961.4634,1556.4453 961.4634,1556.4453 C961.4634,1556.4453 979.4634,1556.4453 979.4634,1566.4453 L979.4634,1592.4453 C979.4634,1602.4453 961.4634,1602.4453 961.4634,1602.4453 C961.4634,1602.4453 943.4634,1602.4453 943.4634,1592.4453 L943.4634,1566.4453 " fill="#E2E2F0" style="stroke:#181818;stroke-width:1.5;"/><path d="M943.4634,1566.4453 C943.4634,1576.4453 961.4634,1576.4453 961.4634,1576.4453 C961.4634,1576.4453 979.4634,1576.4453 979.4634,1566.4453 " fill="#FFFFFF" fill-opacity="0.00000" style="stroke:#181818;stroke-width:1.5;"/><rect fill="#EEEEEE" height="3" style="stroke:#EEEEEE;stroke-width:1;" width="1028.4287" x="0" y="111.8633"/><line style="stroke:#000000;stroke-width:1;" x1="0" x2="1028.4287" y1="111.8633" y2="111.8633"/><line style="stroke:#000000;stroke-width:1;" x1="0" x2="1028.4287" y1="114.8633" y2="114.8633"/><rect fill="#EEEEEE" height="23.1328" style="stroke:#000000;stroke-width:2;" width="108.4531" x="459.9878" y="101.2969"/><text fill="#000000" font-family="sans-serif" font-size="13" font-weight="bold" lengthAdjust="spacing" textLength="89.9272" x="465.9878" y="117.3638">Initial Setup</text><polygon fill="#181818" points="215.1367,151.5625,225.1367,155.5625,215.1367,159.5625,219.1367,155.5625" style="stroke:#181818;stroke-width:1;"/><line style="stroke:#181818;stroke-width:1;" x1="23.9551" x2="221.1367" y1="155.5625" y2="155.5625"/><text fill="#000000" font-family="sans-serif" font-size="13" lengthAdjust="spacing" textLength="179.1816" x="30.9551" y="150.4966">Configure PRTG datasource</text><polygon fill="#181818" points="372.8882,180.6953,382.8882,184.6953,372.8882,188.6953,376.8882,184.6953" style="stroke:#181818;stroke-width:1;"/><line style="stroke:#181818;stroke-width:1;" x1="227.1367" x2="378.8882" y1="184.6953" y2="184.6953"/><text fill="#000000" font-family="sans-serif" font-size="13" lengthAdjust="spacing" textLength="130.165" x="234.1367" y="179.6294">Initialize connection</text><polygon fill="#181818" points="610.0171,224.9609,620.0171,228.9609,610.0171,232.9609,614.0171,228.9609" style="stroke:#181818;stroke-width:1;"/><line style="stroke:#181818;stroke-width:1;" x1="384.8882" x2="616.0171" y1="228.9609" y2="228.9609"/><text fill="#000000" font-family="sans-serif" font-size="13" lengthAdjust="spacing" textLength="141.7432" x="391.8882" y="208.7622">Create Axios instance</text><text fill="#000000" font-family="sans-serif" font-size="13" lengthAdjust="spacing" textLength="140.5688" x="391.8882" y="223.895">with base URL &amp; auth</text><polygon fill="#181818" points="789.522,269.2266,799.522,273.2266,789.522,277.2266,793.522,273.2266" style="stroke:#181818;stroke-width:1;"/><line style="stroke:#181818;stroke-width:1;" x1="622.0171" x2="795.522" y1="273.2266" y2="273.2266"/><text fill="#000000" font-family="sans-serif" font-size="13" lengthAdjust="spacing" textLength="129.5684" x="629.0171" y="253.0278">Validate credentials</text><text fill="#000000" font-family="sans-serif" font-size="13" lengthAdjust="spacing" textLength="155.5049" x="629.0171" y="268.1606">(username + passhash)</text><polygon fill="#181818" points="949.4634,298.3594,959.4634,302.3594,949.4634,306.3594,953.4634,302.3594" style="stroke:#181818;stroke-width:1;"/><line style="stroke:#181818;stroke-width:1;" x1="801.522" x2="955.4634" y1="302.3594" y2="302.3594"/><text fill="#000000" font-family="sans-serif" font-size="13" lengthAdjust="spacing" textLength="83.624" x="808.522" y="297.2935">Authenticate</text><polygon fill="#181818" points="812.522,327.4922,802.522,331.4922,812.522,335.4922,808.522,331.4922" style="stroke:#181818;stroke-width:1;"/><line style="stroke:#181818;stroke-width:1;stroke-dasharray:2.0,2.0;" x1="806.522" x2="960.4634" y1="331.4922" y2="331.4922"/><text fill="#000000" font-family="sans-serif" font-size="13" lengthAdjust="spacing" textLength="93.9326" x="818.522" y="326.4263">Auth response</text><polygon fill="#181818" points="633.0171,356.625,623.0171,360.625,633.0171,364.625,629.0171,360.625" style="stroke:#181818;stroke-width:1;"/><line style="stroke:#181818;stroke-width:1;stroke-dasharray:2.0,2.0;" x1="627.0171" x2="800.522" y1="360.625" y2="360.625"/><text fill="#000000" font-family="sans-serif" font-size="13" lengthAdjust="spacing" textLength="117.6348" x="639.0171" y="355.5591">Connection status</text><polygon fill="#181818" points="395.8882,385.7578,385.8882,389.7578,395.8882,393.7578,391.8882,389.7578" style="stroke:#181818;stroke-width:1;"/><line style="stroke:#181818;stroke-width:1;stroke-dasharray:2.0,2.0;" x1="389.8882" x2="621.0171" y1="389.7578" y2="389.7578"/><text fill="#000000" font-family="sans-serif" font-size="13" lengthAdjust="spacing" textLength="96.4336" x="401.8882" y="384.6919">Response data</text><polygon fill="#181818" points="238.1367,414.8906,228.1367,418.8906,238.1367,422.8906,234.1367,418.8906" style="stroke:#181818;stroke-width:1;"/><line style="stroke:#181818;stroke-width:1;stroke-dasharray:2.0,2.0;" x1="232.1367" x2="383.8882" y1="418.8906" y2="418.8906"/><text fill="#000000" font-family="sans-serif" font-size="13" lengthAdjust="spacing" textLength="79.0347" x="244.1367" y="413.8247">Setup result</text><polygon fill="#181818" points="34.9551,444.0234,24.9551,448.0234,34.9551,452.0234,30.9551,448.0234" style="stroke:#181818;stroke-width:1;"/><line style="stroke:#181818;stroke-width:1;stroke-dasharray:2.0,2.0;" x1="28.9551" x2="226.1367" y1="448.0234" y2="448.0234"/><text fill="#000000" font-family="sans-serif" font-size="13" lengthAdjust="spacing" textLength="152.0137" x="40.9551" y="442.9575">Configuration feedback</text><rect fill="#EEEEEE" height="3" style="stroke:#EEEEEE;stroke-width:1;" width="1028.4287" x="0" y="476.5898"/><line style="stroke:#000000;stroke-width:1;" x1="0" x2="1028.4287" y1="476.5898" y2="476.5898"/><line style="stroke:#000000;stroke-width:1;" x1="0" x2="1028.4287" y1="479.5898" y2="479.5898"/><rect fill="#EEEEEE" height="23.1328" style="stroke:#000000;stroke-width:2;" width="140.4136" x="444.0076" y="466.0234"/><text fill="#000000" font-family="sans-serif" font-size="13" font-weight="bold" lengthAdjust="spacing" textLength="121.8877" x="450.0076" y="482.0903">Data Query Flow</text><polygon fill="#181818" points="215.1367,516.2891,225.1367,520.2891,215.1367,524.2891,219.1367,520.2891" style="stroke:#181818;stroke-width:1;"/><line style="stroke:#181818;stroke-width:1;" x1="23.9551" x2="221.1367" y1="520.2891" y2="520.2891"/><text fill="#000000" font-family="sans-serif" font-size="13" lengthAdjust="spacing" textLength="158.2725" x="30.9551" y="515.2231">Create dashboard query</text><polygon fill="#181818" points="372.8882,545.4219,382.8882,549.4219,372.8882,553.4219,376.8882,549.4219" style="stroke:#181818;stroke-width:1;"/><line style="stroke:#181818;stroke-width:1;" x1="227.1367" x2="378.8882" y1="549.4219" y2="549.4219"/><text fill="#000000" font-family="sans-serif" font-size="13" lengthAdjust="spacing" textLength="94.0469" x="234.1367" y="544.356">Execute query</text><path d="M182.0649,564.4219 L246.5078,564.4219 L246.5078,571.5547 L236.5078,581.5547 L182.0649,581.5547 L182.0649,564.4219 " fill="#EEEEEE" style="stroke:#000000;stroke-width:1.5;"/><rect fill="#FFFFFF" fill-opacity="0.00000" height="757.9297" style="stroke:#000000;stroke-width:1.5;" width="836.3638" x="182.0649" y="564.4219"/><text fill="#000000" font-family="sans-serif" font-size="13" font-weight="bold" lengthAdjust="spacing" textLength="19.4429" x="197.0649" y="577.4888">alt</text><text fill="#000000" font-family="sans-serif" font-size="11" font-weight="bold" lengthAdjust="spacing" textLength="97.0503" x="261.5078" y="576.6323">[Metrics Query]</text><polygon fill="#181818" points="610.0171,613.8203,620.0171,617.8203,610.0171,621.8203,614.0171,617.8203" style="stroke:#181818;stroke-width:1;"/><line style="stroke:#181818;stroke-width:1;" x1="384.8882" x2="616.0171" y1="617.8203" y2="617.8203"/><text fill="#000000" font-family="sans-serif" font-size="13" lengthAdjust="spacing" textLength="213.1289" x="391.8882" y="597.6216">axios.get('/api/historicdata.json')</text><text fill="#000000" font-family="sans-serif" font-size="13" lengthAdjust="spacing" textLength="93.4121" x="391.8882" y="612.7544">(sensors data)</text><polygon fill="#181818" points="789.522,642.9531,799.522,646.9531,789.522,650.9531,793.522,646.9531" style="stroke:#181818;stroke-width:1;"/><line style="stroke:#181818;stroke-width:1;" x1="622.0171" x2="795.522" y1="646.9531" y2="646.9531"/><text fill="#000000" font-family="sans-serif" font-size="13" lengthAdjust="spacing" textLength="117.6919" x="629.0171" y="641.8872">HTTP GET request</text><polygon fill="#181818" points="949.4634,672.0859,959.4634,676.0859,949.4634,680.0859,953.4634,676.0859" style="stroke:#181818;stroke-width:1;"/><line style="stroke:#181818;stroke-width:1;" x1="801.522" x2="955.4634" y1="676.0859" y2="676.0859"/><text fill="#000000" font-family="sans-serif" font-size="13" lengthAdjust="spacing" textLength="135.9414" x="808.522" y="671.02">Fetch sensor metrics</text><polygon fill="#181818" points="812.522,701.2188,802.522,705.2188,812.522,709.2188,808.522,705.2188" style="stroke:#181818;stroke-width:1;"/><line style="stroke:#181818;stroke-width:1;stroke-dasharray:2.0,2.0;" x1="806.522" x2="960.4634" y1="705.2188" y2="705.2188"/><text fill="#000000" font-family="sans-serif" font-size="13" lengthAdjust="spacing" textLength="108.2593" x="818.522" y="700.1528">Raw sensor data</text><polygon fill="#181818" points="633.0171,730.3516,623.0171,734.3516,633.0171,738.3516,629.0171,734.3516" style="stroke:#181818;stroke-width:1;"/><line style="stroke:#181818;stroke-width:1;stroke-dasharray:2.0,2.0;" x1="627.0171" x2="800.522" y1="734.3516" y2="734.3516"/><text fill="#000000" font-family="sans-serif" font-size="13" lengthAdjust="spacing" textLength="96.4336" x="639.0171" y="729.2856">Response data</text><polygon fill="#181818" points="395.8882,759.4844,385.8882,763.4844,395.8882,767.4844,391.8882,763.4844" style="stroke:#181818;stroke-width:1;"/><line style="stroke:#181818;stroke-width:1;stroke-dasharray:2.0,2.0;" x1="389.8882" x2="621.0171" y1="763.4844" y2="763.4844"/><text fill="#000000" font-family="sans-serif" font-size="13" lengthAdjust="spacing" textLength="120.6182" x="401.8882" y="758.4185">Formatted metrics</text><line style="stroke:#181818;stroke-width:1;" x1="384.8882" x2="426.8882" y1="792.6172" y2="792.6172"/><line style="stroke:#181818;stroke-width:1;" x1="426.8882" x2="426.8882" y1="792.6172" y2="805.6172"/><line style="stroke:#181818;stroke-width:1;" x1="385.8882" x2="426.8882" y1="805.6172" y2="805.6172"/><polygon fill="#181818" points="395.8882,801.6172,385.8882,805.6172,395.8882,809.6172,391.8882,805.6172" style="stroke:#181818;stroke-width:1;"/><text fill="#000000" font-family="sans-serif" font-size="13" lengthAdjust="spacing" textLength="100.2168" x="391.8882" y="787.5513">Transform data</text><polygon fill="#181818" points="238.1367,830.75,228.1367,834.75,238.1367,838.75,234.1367,834.75" style="stroke:#181818;stroke-width:1;"/><line style="stroke:#181818;stroke-width:1;stroke-dasharray:2.0,2.0;" x1="232.1367" x2="383.8882" y1="834.75" y2="834.75"/><text fill="#000000" font-family="sans-serif" font-size="13" lengthAdjust="spacing" textLength="100.6865" x="244.1367" y="829.6841">Display metrics</text><line style="stroke:#000000;stroke-width:1;stroke-dasharray:2.0,2.0;" x1="182.0649" x2="1018.4287" y1="843.75" y2="843.75"/><text fill="#000000" font-family="sans-serif" font-size="11" font-weight="bold" lengthAdjust="spacing" textLength="143.4351" x="187.0649" y="853.9604">[Historical Data Query]</text><polygon fill="#181818" points="610.0171,874.6875,620.0171,878.6875,610.0171,882.6875,614.0171,878.6875" style="stroke:#181818;stroke-width:1;"/><line style="stroke:#181818;stroke-width:1;" x1="384.8882" x2="616.0171" y1="878.6875" y2="878.6875"/><text fill="#000000" font-family="sans-serif" font-size="13" lengthAdjust="spacing" textLength="213.1289" x="391.8882" y="873.6216">axios.get('/api/historicdata.json')</text><polygon fill="#181818" points="789.522,903.8203,799.522,907.8203,789.522,911.8203,793.522,907.8203" style="stroke:#181818;stroke-width:1;"/><line style="stroke:#181818;stroke-width:1;" x1="622.0171" x2="795.522" y1="907.8203" y2="907.8203"/><text fill="#000000" font-family="sans-serif" font-size="13" lengthAdjust="spacing" textLength="117.6919" x="629.0171" y="902.7544">HTTP GET request</text><polygon fill="#181818" points="949.4634,932.9531,959.4634,936.9531,949.4634,940.9531,953.4634,936.9531" style="stroke:#181818;stroke-width:1;"/><line style="stroke:#181818;stroke-width:1;" x1="801.522" x2="955.4634" y1="936.9531" y2="936.9531"/><text fill="#000000" font-family="sans-serif" font-size="13" lengthAdjust="spacing" textLength="132.8628" x="808.522" y="931.8872">Fetch historical data</text><polygon fill="#181818" points="812.522,962.0859,802.522,966.0859,812.522,970.0859,808.522,966.0859" style="stroke:#181818;stroke-width:1;"/><line style="stroke:#181818;stroke-width:1;stroke-dasharray:2.0,2.0;" x1="806.522" x2="960.4634" y1="966.0859" y2="966.0859"/><text fill="#000000" font-family="sans-serif" font-size="13" lengthAdjust="spacing" textLength="107.3071" x="818.522" y="961.02">Historical values</text><polygon fill="#181818" points="633.0171,991.2188,623.0171,995.2188,633.0171,999.2188,629.0171,995.2188" style="stroke:#181818;stroke-width:1;"/><line style="stroke:#181818;stroke-width:1;stroke-dasharray:2.0,2.0;" x1="627.0171" x2="800.522" y1="995.2188" y2="995.2188"/><text fill="#000000" font-family="sans-serif" font-size="13" lengthAdjust="spacing" textLength="96.4336" x="639.0171" y="990.1528">Response data</text><polygon fill="#181818" points="395.8882,1020.3516,385.8882,1024.3516,395.8882,1028.3516,391.8882,1024.3516" style="stroke:#181818;stroke-width:1;"/><line style="stroke:#181818;stroke-width:1;stroke-dasharray:2.0,2.0;" x1="389.8882" x2="621.0171" y1="1024.3516" y2="1024.3516"/><text fill="#000000" font-family="sans-serif" font-size="13" lengthAdjust="spacing" textLength="108.2593" x="401.8882" y="1019.2856">Time series data</text><line style="stroke:#181818;stroke-width:1;" x1="384.8882" x2="426.8882" y1="1053.4844" y2="1053.4844"/><line style="stroke:#181818;stroke-width:1;" x1="426.8882" x2="426.8882" y1="1053.4844" y2="1066.4844"/><line style="stroke:#181818;stroke-width:1;" x1="385.8882" x2="426.8882" y1="1066.4844" y2="1066.4844"/><polygon fill="#181818" points="395.8882,1062.4844,385.8882,1066.4844,395.8882,1070.4844,391.8882,1066.4844" style="stroke:#181818;stroke-width:1;"/><text fill="#000000" font-family="sans-serif" font-size="13" lengthAdjust="spacing" textLength="122.6367" x="391.8882" y="1048.4185">Format time series</text><polygon fill="#181818" points="238.1367,1091.6172,228.1367,1095.6172,238.1367,1099.6172,234.1367,1095.6172" style="stroke:#181818;stroke-width:1;"/><line style="stroke:#181818;stroke-width:1;stroke-dasharray:2.0,2.0;" x1="232.1367" x2="383.8882" y1="1095.6172" y2="1095.6172"/><text fill="#000000" font-family="sans-serif" font-size="13" lengthAdjust="spacing" textLength="90.105" x="244.1367" y="1090.5513">Display graph</text><line style="stroke:#000000;stroke-width:1;stroke-dasharray:2.0,2.0;" x1="182.0649" x2="1018.4287" y1="1104.6172" y2="1104.6172"/><text fill="#000000" font-family="sans-serif" font-size="11" font-weight="bold" lengthAdjust="spacing" textLength="91.3623" x="187.0649" y="1114.8276">[Status Query]</text><polygon fill="#181818" points="610.0171,1135.5547,620.0171,1139.5547,610.0171,1143.5547,614.0171,1139.5547" style="stroke:#181818;stroke-width:1;"/><line style="stroke:#181818;stroke-width:1;" x1="384.8882" x2="616.0171" y1="1139.5547" y2="1139.5547"/><text fill="#000000" font-family="sans-serif" font-size="13" lengthAdjust="spacing" textLength="176.0142" x="391.8882" y="1134.4888">axios.get('/api/status.json')</text><polygon fill="#181818" points="789.522,1164.6875,799.522,1168.6875,789.522,1172.6875,793.522,1168.6875" style="stroke:#181818;stroke-width:1;"/><line style="stroke:#181818;stroke-width:1;" x1="622.0171" x2="795.522" y1="1168.6875" y2="1168.6875"/><text fill="#000000" font-family="sans-serif" font-size="13" lengthAdjust="spacing" textLength="117.6919" x="629.0171" y="1163.6216">HTTP GET request</text><polygon fill="#181818" points="949.4634,1193.8203,959.4634,1197.8203,949.4634,1201.8203,953.4634,1197.8203" style="stroke:#181818;stroke-width:1;"/><line style="stroke:#181818;stroke-width:1;" x1="801.522" x2="955.4634" y1="1197.8203" y2="1197.8203"/><text fill="#000000" font-family="sans-serif" font-size="13" lengthAdjust="spacing" textLength="80.0376" x="808.522" y="1192.7544">Fetch status</text><polygon fill="#181818" points="812.522,1222.9531,802.522,1226.9531,812.522,1230.9531,808.522,1226.9531" style="stroke:#181818;stroke-width:1;"/><line style="stroke:#181818;stroke-width:1;stroke-dasharray:2.0,2.0;" x1="806.522" x2="960.4634" y1="1226.9531" y2="1226.9531"/><text fill="#000000" font-family="sans-serif" font-size="13" lengthAdjust="spacing" textLength="74.8389" x="818.522" y="1221.8872">Status data</text><polygon fill="#181818" points="633.0171,1252.0859,623.0171,1256.0859,633.0171,1260.0859,629.0171,1256.0859" style="stroke:#181818;stroke-width:1;"/><line style="stroke:#181818;stroke-width:1;stroke-dasharray:2.0,2.0;" x1="627.0171" x2="800.522" y1="1256.0859" y2="1256.0859"/><text fill="#000000" font-family="sans-serif" font-size="13" lengthAdjust="spacing" textLength="96.4336" x="639.0171" y="1251.02">Response data</text><polygon fill="#181818" points="395.8882,1281.2188,385.8882,1285.2188,395.8882,1289.2188,391.8882,1285.2188" style="stroke:#181818;stroke-width:1;"/><line style="stroke:#181818;stroke-width:1;stroke-dasharray:2.0,2.0;" x1="389.8882" x2="621.0171" y1="1285.2188" y2="1285.2188"/><text fill="#000000" font-family="sans-serif" font-size="13" lengthAdjust="spacing" textLength="120.8149" x="401.8882" y="1280.1528">Status information</text><polygon fill="#181818" points="238.1367,1310.3516,228.1367,1314.3516,238.1367,1318.3516,234.1367,1314.3516" style="stroke:#181818;stroke-width:1;"/><line style="stroke:#181818;stroke-width:1;stroke-dasharray:2.0,2.0;" x1="232.1367" x2="383.8882" y1="1314.3516" y2="1314.3516"/><text fill="#000000" font-family="sans-serif" font-size="13" lengthAdjust="spacing" textLength="91.9966" x="244.1367" y="1309.2856">Display status</text><rect fill="#EEEEEE" height="3" style="stroke:#EEEEEE;stroke-width:1;" width="1028.4287" x="0" y="1349.918"/><line style="stroke:#000000;stroke-width:1;" x1="0" x2="1028.4287" y1="1349.918" y2="1349.918"/><line style="stroke:#000000;stroke-width:1;" x1="0" x2="1028.4287" y1="1352.918" y2="1352.918"/><rect fill="#EEEEEE" height="23.1328" style="stroke:#000000;stroke-width:2;" width="125.7822" x="451.3232" y="1339.3516"/><text fill="#000000" font-family="sans-serif" font-size="13" font-weight="bold" lengthAdjust="spacing" textLength="107.2563" x="457.3232" y="1355.4185">Error Handling</text><polygon fill="#181818" points="610.0171,1389.6172,620.0171,1393.6172,610.0171,1397.6172,614.0171,1393.6172" style="stroke:#181818;stroke-width:1;"/><line style="stroke:#181818;stroke-width:1;" x1="384.8882" x2="616.0171" y1="1393.6172" y2="1393.6172"/><text fill="#000000" font-family="sans-serif" font-size="13" lengthAdjust="spacing" textLength="84.062" x="391.8882" y="1388.5513">Request fails</text><polygon fill="#181818" points="395.8882,1418.75,385.8882,1422.75,395.8882,1426.75,391.8882,1422.75" style="stroke:#181818;stroke-width:1;"/><line style="stroke:#181818;stroke-width:1;stroke-dasharray:2.0,2.0;" x1="389.8882" x2="621.0171" y1="1422.75" y2="1422.75"/><text fill="#000000" font-family="sans-serif" font-size="13" lengthAdjust="spacing" textLength="134.5068" x="401.8882" y="1417.6841">Axios error response</text><line style="stroke:#181818;stroke-width:1;" x1="384.8882" x2="426.8882" y1="1451.8828" y2="1451.8828"/><line style="stroke:#181818;stroke-width:1;" x1="426.8882" x2="426.8882" y1="1451.8828" y2="1464.8828"/><line style="stroke:#181818;stroke-width:1;" x1="385.8882" x2="426.8882" y1="1464.8828" y2="1464.8828"/><polygon fill="#181818" points="395.8882,1460.8828,385.8882,1464.8828,395.8882,1468.8828,391.8882,1464.8828" style="stroke:#181818;stroke-width:1;"/><text fill="#000000" font-family="sans-serif" font-size="13" lengthAdjust="spacing" textLength="82.6211" x="391.8882" y="1446.8169">Format error</text><polygon fill="#181818" points="238.1367,1490.0156,228.1367,1494.0156,238.1367,1498.0156,234.1367,1494.0156" style="stroke:#181818;stroke-width:1;"/><line style="stroke:#181818;stroke-width:1;stroke-dasharray:2.0,2.0;" x1="232.1367" x2="383.8882" y1="1494.0156" y2="1494.0156"/><text fill="#000000" font-family="sans-serif" font-size="13" lengthAdjust="spacing" textLength="133.7515" x="244.1367" y="1488.9497">Show error message</text><polygon fill="#181818" points="34.9551,1519.1484,24.9551,1523.1484,34.9551,1527.1484,30.9551,1523.1484" style="stroke:#181818;stroke-width:1;"/><line style="stroke:#181818;stroke-width:1;stroke-dasharray:2.0,2.0;" x1="28.9551" x2="226.1367" y1="1523.1484" y2="1523.1484"/><text fill="#000000" font-family="sans-serif" font-size="13" lengthAdjust="spacing" textLength="84.0366" x="40.9551" y="1518.0825">Display error</text><!--SRC=[hLJBRjim4BppAnOvD36297S3BX0aJcAW1Lp7wIcNDRMssCgKogNowDTtIKgM7og29lN54Zaxd9qH5xKl7JmmELMXyqQR2gs7MuTBjBYpTZITpMzXMjGhOuy0kNdSnLo-c9BXgZ1aVGJ5XHwUo-aaxKydAaEF2sHgjkx9FP6Bk-bHgT489jPuWuKi-Rg2qKW5qN3skTKwXAlIBisgTWIH9h1oMJjDge44T18zREdCRm9TMalQczAgj1jmKRTmEa9FwGsCPOzMqwDzDZw7AFbXzWK-0TO-LmaKQgUJ8NmNyYpKQaUPk267yQCzgKMrnJN1ALJ8d2Fd0oK5eIvrEuHBOGiLMifLMeIpbZTiWYEkIikKAhVaRbe1aUfhRaLjTJvhQgD1cuwtZKmMonbruJll114ixtp6UCwIA5kW_Xb3kXPA-5QJUuMRedpkZobPcaddYn9T1hy2lY-ZyGlfMg09eB3my9MyCvhJ6GhaTn0PXh_p5VcJumkip4LkMBvneqExvp-ujCS3oO79SkaucZ28HBlntStdKxWTpyK6EPvzWkpcT4DUvv2OO9sKHTn-PZDyRc7Hz0rNftetbIqzMtxSb6wDtbEsSrXdG8kRExIy5717rXVpjU6gmDSDcQ92phzhx9AhrgNvRgS_v6pUITaqic_jbjmdB8JllUREZLnA-LODyQ5j-nc0xz1l-hjoMEMDk_VnLlwBgUaU_myxcudGvs8ZwoCVPqDXx38w5ARfMyOqWiXcSNYCdPCBSeSsAunTXTbnOCuizGXBD4NVR4ih58asC_Al8KPS_mJCPNWbcZKnuufwvc3RHiJz0G00]--></g></svg>